<svg width="49" height="49" viewBox="0 0 49 49" fill="none" xmlns="http://www.w3.org/2000/svg">
<path fill-rule="evenodd" clip-rule="evenodd" d="M11.4123 5.27194L12.3211 5.41705L13.2568 5.68112L31.911 12.4628L32.7274 12.7958L33.511 13.2187L34.2561 13.722L34.9565 14.2968L35.6061 14.9343L36.1986 15.626L36.7276 16.3636L37.1863 17.1389L37.5677 17.9437L37.8647 18.7698L38.0698 19.6092L38.1749 20.4537L38.5072 38.8731L38.5072 38.8736L38.3953 39.7684L38.1749 40.5961L37.8518 41.3494L37.4316 42.0208L36.9203 42.6021L36.3239 43.0852L35.6488 43.4614L34.9017 43.7221L34.0895 43.8583L33.2199 43.8612L32.3004 43.7219L11.6898 39.327L10.6828 39.0943L9.62345 38.6403L8.61081 37.9827L7.70439 37.299L6.87659 36.5183L6.13828 35.654L5.49995 34.7196L4.97169 33.7289L4.56314 32.6958L4.28341 31.6344L4.14093 30.5583L4.1437 29.4817L5.78052 9.64868L5.9119 8.78533L6.16744 8.00635L6.53621 7.31609L7.00739 6.71852L7.57039 6.21731L8.21485 5.81588L8.93075 5.51751L9.70843 5.32533L10.5386 5.24243L11.4123 5.27194ZM38.5072 38.8731L38.1749 20.4537L38.505 37.9186L38.5072 38.8731Z" fill="url(#paint0_linear_1_693)" fill-opacity="0.5"/>
<path fill-rule="evenodd" clip-rule="evenodd" d="M9.89016 3.57364L9.75878 4.437L8.20557 25.8301L8.2028 26.9067L8.34525 27.9827L8.62501 29.0442L9.03356 30.0773L9.56182 31.0681L10.2001 32.0025L10.9385 32.8668L11.7663 33.6474L12.6727 34.3311L13.6466 34.9052L14.6766 35.3571L15.7512 35.6754L37.7933 40.6678L38.7127 40.8071L39.5824 40.8042L40.3945 40.668L41.1416 40.4074L40.3977 40.8482L39.7252 41.2231L39.0146 41.6447L39.7249 41.2233L39.7252 41.2231L40.3977 40.8482L41.1416 40.4074L41.8168 40.0311L40.3984 40.8478L40.3981 40.848L40.3977 40.8482L39.7252 41.2231L39.0146 41.6447L37.665 42.4219L36.348 43.1802L35.6825 43.5516L34.9494 43.8124L34.1557 43.9543L33.309 43.9685L32.417 43.8467L11.1478 39.352L10.1161 39.062L9.12985 38.6431L8.1997 38.1065L7.33634 37.4639L6.55024 36.7272L5.85155 35.9089L5.25015 35.0219L4.7555 34.079L4.37664 33.0935L4.12213 32.0785L4 31.0471L4.01774 30.0124L5.82143 9.33471L5.96105 8.49503L6.21975 7.73426L7.53298 5.86395L7.99981 5.272L8.97067 4.04774L9.96553 2.79322L10.9847 1.50806L10.5145 2.10441L10.1457 2.79467L9.89016 3.57364Z" fill="url(#paint1_linear_1_693)"/>
<g filter="url(#filter0_b_1_693)">
<path fill-rule="evenodd" clip-rule="evenodd" d="M15.3906 0.0609998L16.2994 0.206113L17.2351 0.470183L36.5032 7.08003L37.3196 7.4131L38.1033 7.83595L38.8483 8.33926L39.5487 8.91404L40.1983 9.55155L40.7909 10.2433L41.3198 10.9809L41.7785 11.7562L42.1599 12.5609L42.457 13.3871L42.662 14.2265L42.7672 15.071L44.0001 35.8197L44.0001 35.8202L43.8882 36.715L43.6678 37.5427L43.3447 38.2961L42.9245 38.9674L42.4132 39.5488L41.8168 40.0318L41.1417 40.4081L40.3946 40.6687L39.5824 40.805L38.7128 40.8078L37.7933 40.6686L15.7517 35.6762L14.7447 35.4434L13.6853 34.9894L12.6727 34.3319L11.7663 33.6482L10.9385 32.8675L10.2002 32.0032L9.56184 31.0688L9.03358 30.0781L8.62503 29.0449L8.3453 27.9835L8.20282 26.9075L8.20559 25.8309L9.7588 4.43775L9.89017 3.57439L10.1457 2.79541L10.5145 2.10516L10.9857 1.50758L11.5487 1.00637L12.1931 0.604945L12.909 0.306575L13.6867 0.114389L14.5168 0.0314941L15.3906 0.0609998ZM44.0001 35.8197L42.7672 15.071L43.9979 34.8652L44.0001 35.8197Z" fill="url(#paint2_linear_1_693)" fill-opacity="0.3"/>
<path d="M43.4982 35.8039L43.3963 36.6193L43.194 37.379L42.9004 38.0635L42.5223 38.6677L42.0657 39.1868L41.5357 39.6161L40.9361 39.9503L40.27 40.1826L39.5399 40.3051L38.7496 40.3077L37.8861 40.1769L15.8643 35.189L15.8621 35.1885L14.9007 34.9663L13.9217 34.5467L12.9598 33.9221L12.0893 33.2655L11.3011 32.5222L10.5978 31.6989L9.99015 30.8094L9.48812 29.8678L9.10094 28.8888L8.83684 27.8866L8.7029 26.8752L8.70554 25.8496L10.2561 4.49355L10.3782 3.69073L10.6072 2.99263L10.9346 2.3799L11.351 1.85175L11.8492 1.4082L12.423 1.05083L13.0661 0.782802L13.772 0.608363L14.5333 0.532336L15.3425 0.559662L16.1917 0.695252L17.086 0.947624L36.3275 7.54836L37.1058 7.8659L37.844 8.26418L38.5491 8.74054L39.2144 9.28646L39.8327 9.89326L40.3971 10.5522L40.9007 11.2544L41.3365 11.991L41.6977 12.753L41.9775 13.5313L42.1694 14.317L42.269 15.1168L43.4982 35.8039Z" stroke="url(#paint3_linear_1_693)"/>
</g>
<g filter="url(#filter1_d_1_693)">
<path fill-rule="evenodd" clip-rule="evenodd" d="M17.4353 17.0251L18.3013 16.0979L17.2749 17.1971L17.4353 17.0251ZM38.3274 17.7847L26.6735 26.4189L26.6725 26.4197L26.4673 26.5465L26.2457 26.6373L26.0108 26.6925L25.7659 26.7128L25.5144 26.6989L25.2596 26.6513L25.0047 26.571L24.7533 26.4585L24.5088 26.3147L24.1456 26.7828L23.7824 27.2509L24.031 27.3611L24.2833 27.4395L24.5357 27.4854L24.785 27.498L25.0278 27.4768L25.2609 27.4211L25.4811 27.3303L25.6852 27.2038L37.3022 18.5911L37.3028 18.5906L38.3274 17.7847ZM18.1401 16.2708L17.2749 17.1971L17.1465 17.3919L17.0507 17.6062L16.9878 17.8368L16.958 18.0803L16.9618 18.3335L16.9994 18.593L17.0711 18.8554L17.177 19.1172L17.3175 19.3749L17.4926 19.6252L22.8917 26.5087L23.0919 26.7378L23.3094 26.9384L23.5407 27.1098L23.7824 27.2509L24.1456 26.7828L24.5088 26.3147L24.2746 26.1405L24.0542 25.9367L23.8511 25.7044L18.3706 18.7237L18.1928 18.47L18.0498 18.209L17.9417 17.944L17.8682 17.6787L17.8291 17.4165L17.8242 17.1607L17.8531 16.915L17.9157 16.6825L18.0114 16.4667L18.1401 16.2708ZM18.1401 16.2708L18.3013 16.0979L17.2749 17.1971L18.1401 16.2708Z" fill="url(#paint4_linear_1_693)"/>
<path fill-rule="evenodd" clip-rule="evenodd" d="M38.2323 15.3708L38.3872 15.5925L38.5158 15.8197L38.6182 16.0496L38.6941 16.2795L38.7434 16.5067L38.766 16.7284L38.7617 16.9418L38.7302 17.144L38.6713 17.3323L38.5847 17.5036L38.4702 17.6552L38.3274 17.7838L26.6733 26.4183L26.6725 26.4188L26.4673 26.5457L26.2457 26.6364L26.0108 26.6917L25.766 26.712L25.5145 26.698L25.2596 26.6505L25.0048 26.5701L24.7534 26.4577L24.5089 26.3139L24.2747 26.1397L25.3523 21.8164L35.8666 14.5841L36.0355 14.4902L36.2189 14.4287L36.4138 14.3987L36.6174 14.3989L36.827 14.4285L37.0398 14.4862L37.2531 14.5711L37.4641 14.6822L37.6702 14.8187L37.8687 14.9795L38.057 15.1638L38.2323 15.3708ZM17.8532 16.9141L17.9157 16.6817L18.0114 16.466L18.7127 15.8368L19.7014 15.7357L19.9608 15.7931L20.2184 15.8816L20.4711 15.9999L20.7155 16.1472L20.9484 16.3225L21.1666 16.525L21.3669 16.7538L25.3523 21.8164L24.2747 26.1397L24.0543 25.9359L23.8511 25.7035L18.3706 18.7228L18.1928 18.4692L18.0499 18.2082L17.9417 17.9432L17.8682 17.6779L17.8291 17.4156L17.8242 17.1599L17.8532 16.9141ZM19.7014 15.7357L19.4435 15.7102L19.1906 15.7178L18.9458 15.7596L18.7127 15.8368L19.7014 15.7357ZM18.7127 15.8368L18.4946 15.9505L18.3013 16.097L18.1401 16.2699L18.0114 16.466L18.7127 15.8368Z" fill="url(#paint5_linear_1_693)"/>
</g>
<defs>
<filter id="filter0_b_1_693" x="-4.79718" y="-12.9685" width="61.7973" height="66.7764" filterUnits="userSpaceOnUse" color-interpolation-filters="sRGB">
<feFlood flood-opacity="0" result="BackgroundImageFix"/>
<feGaussianBlur in="BackgroundImageFix" stdDeviation="6.5"/>
<feComposite in2="SourceAlpha" operator="in" result="effect1_backgroundBlur_1_693"/>
<feBlend mode="normal" in="SourceGraphic" in2="effect1_backgroundBlur_1_693" result="shape"/>
</filter>
<filter id="filter1_d_1_693" x="0.25269" y="9.75832" width="47.7941" height="39.0854" filterUnits="userSpaceOnUse" color-interpolation-filters="sRGB">
<feFlood flood-opacity="0" result="BackgroundImageFix"/>
<feColorMatrix in="SourceAlpha" type="matrix" values="0 0 0 0 0 0 0 0 0 0 0 0 0 0 0 0 0 0 127 0" result="hardAlpha"/>
<feOffset dx="-3.71229" dy="8.35266"/>
<feGaussianBlur stdDeviation="6.49651"/>
<feComposite in2="hardAlpha" operator="out"/>
<feColorMatrix type="matrix" values="0 0 0 0 0.103333 0 0 0 0 0.4104 0 0 0 0 0.43 0 0 0 0.25 0"/>
<feBlend mode="normal" in2="BackgroundImageFix" result="effect1_dropShadow_1_693"/>
<feBlend mode="normal" in="SourceGraphic" in2="effect1_dropShadow_1_693" result="shape"/>
</filter>
<linearGradient id="paint0_linear_1_693" x1="5.13771" y1="46.2859" x2="36.5624" y2="8.09619" gradientUnits="userSpaceOnUse">
<stop offset="0.320833" stop-color="#9400FF" stop-opacity="0.66"/>
<stop offset="0.58125" stop-color="#9400FF" stop-opacity="0.76"/>
<stop offset="0.89375" stop-color="#9400FF"/>
</linearGradient>
<linearGradient id="paint1_linear_1_693" x1="-5.28734" y1="7.26246" x2="38.6597" y2="51.1513" gradientUnits="userSpaceOnUse">
<stop stop-color="#1E092E" stop-opacity="0.1"/>
<stop offset="0.35896" stop-color="#9400FF" stop-opacity="0.63"/>
<stop offset="0.683604" stop-color="#9E00FF"/>
<stop offset="1" stop-color="#393009"/>
</linearGradient>
<linearGradient id="paint2_linear_1_693" x1="9.34044" y1="42.3426" x2="40.7652" y2="4.15287" gradientUnits="userSpaceOnUse">
<stop offset="0.320833" stop-color="#FE6543"/>
<stop offset="0.685417" stop-color="#FD6344"/>
<stop offset="0.89375" stop-color="#F3335A"/>
</linearGradient>
<linearGradient id="paint3_linear_1_693" x1="8.13837" y1="36.8785" x2="42.9129" y2="7.70525" gradientUnits="userSpaceOnUse">
<stop offset="0.180663" stop-color="white" stop-opacity="0.35"/>
<stop offset="0.533255" stop-color="white" stop-opacity="0"/>
</linearGradient>
<linearGradient id="paint4_linear_1_693" x1="15.9613" y1="7.70748" x2="16.2119" y2="30.0966" gradientUnits="userSpaceOnUse">
<stop offset="0.301696" stop-color="#D795FF"/>
<stop offset="0.993284" stop-color="#7FB8C0" stop-opacity="0.63"/>
</linearGradient>
<linearGradient id="paint5_linear_1_693" x1="26.6096" y1="30.4905" x2="37.8884" y2="10.4119" gradientUnits="userSpaceOnUse">
<stop stop-color="white"/>
<stop offset="0.644664" stop-color="white" stop-opacity="0.57"/>
</linearGradient>
</defs>
</svg>
