<svg width="30" height="30" viewBox="0 0 30 30" fill="none" xmlns="http://www.w3.org/2000/svg">
<g clip-path="url(#clip0_1_78)">
<g style="mix-blend-mode:screen">
<path d="M1.66667 25C1.19445 25 0.798339 24.84 0.478339 24.52C0.158339 24.2 -0.00110534 23.8045 5.76702e-06 23.3333C5.76702e-06 22.8611 0.160006 22.465 0.480006 22.145C0.800006 21.825 1.19556 21.6656 1.66667 21.6667H28.3333C28.8056 21.6667 29.2017 21.8267 29.5217 22.1467C29.8417 22.4667 30.0011 22.8622 30 23.3333C30 23.8056 29.84 24.2017 29.52 24.5217C29.2 24.8417 28.8045 25.0011 28.3333 25H1.66667ZM1.66667 16.6667C1.19445 16.6667 0.798339 16.5067 0.478339 16.1867C0.158339 15.8667 -0.00110534 15.4711 5.76702e-06 15C5.76702e-06 14.5278 0.160006 14.1317 0.480006 13.8117C0.800006 13.4917 1.19556 13.3322 1.66667 13.3333H28.3333C28.8056 13.3333 29.2017 13.4933 29.5217 13.8133C29.8417 14.1333 30.0011 14.5289 30 15C30 15.4722 29.84 15.8683 29.52 16.1883C29.2 16.5083 28.8045 16.6678 28.3333 16.6667H1.66667ZM1.66667 8.33334C1.19445 8.33334 0.798339 8.17334 0.478339 7.85334C0.158339 7.53334 -0.00110534 7.13778 5.76702e-06 6.66667C5.76702e-06 6.19445 0.160006 5.79834 0.480006 5.47834C0.800006 5.15834 1.19556 4.99889 1.66667 5.00001H28.3333C28.8056 5.00001 29.2017 5.16001 29.5217 5.48001C29.8417 5.80001 30.0011 6.19556 30 6.66667C30 7.13889 29.84 7.53501 29.52 7.85501C29.2 8.17501 28.8045 8.33445 28.3333 8.33334H1.66667Z" fill="url(#paint0_linear_1_78)"/>
</g>
</g>
<defs>
<linearGradient id="paint0_linear_1_78" x1="33.2974" y1="-0.918359" x2="0.625213" y2="1.84914" gradientUnits="userSpaceOnUse">
<stop stop-color="white"/>
<stop offset="0.523958" stop-color="#D795FF"/>
<stop offset="1" stop-color="#7BC2FE"/>
</linearGradient>
<clipPath id="clip0_1_78">
<rect width="30" height="30" fill="white"/>
</clipPath>
</defs>
</svg>
