<svg width="102" height="17" viewBox="0 0 102 17" fill="none" xmlns="http://www.w3.org/2000/svg">
<g clip-path="url(#clip0_10_203)">
<path d="M27.1136 6.97176L24.8099 6.97176L24.3609 8.51881L22.5358 8.51881L24.9025 1.47644L27.0939 1.47644L29.4611 8.51881L27.5577 8.51881L27.1136 6.97176ZM25.1565 5.68309L26.7621 5.68309L25.9814 2.96973L25.9421 2.96973L25.1565 5.68309Z" fill="white"/>
<path d="M31.7938 1.12399L30.0662 1.12399L30.0662 8.51782L31.7938 8.51782L31.7938 1.12399Z" fill="white"/>
<path d="M36.104 3.00899C36.7904 3.00899 37.324 3.25292 37.7048 3.74079C38.0887 4.22906 38.2805 4.91392 38.2805 5.79537C38.2805 6.67722 38.0903 7.36208 37.7096 7.85035C37.3321 8.34142 36.8033 8.58696 36.1232 8.58696C35.3068 8.58696 34.7519 8.25356 34.459 7.58675L34.4249 7.58675L34.4249 10.1685L32.6973 10.1685L32.6973 3.08201L34.4153 3.08201L34.4153 4.03367L34.4494 4.03367C34.5862 3.7115 34.7993 3.46115 35.0889 3.28221C35.3782 3.10007 35.7168 3.00899 36.104 3.00899ZM35.4645 7.22567C35.7834 7.22567 36.0374 7.09688 36.2259 6.84011C36.4145 6.57973 36.5088 6.23148 36.5088 5.79537C36.5088 5.36287 36.4145 5.01783 36.2259 4.76106C36.0338 4.50068 35.7802 4.37028 35.4645 4.37028C35.1491 4.37028 34.8951 4.50068 34.7034 4.76106C34.5144 5.02104 34.4201 5.36768 34.4201 5.80058C34.4201 6.23629 34.5144 6.58294 34.7034 6.84011C34.8919 7.09688 35.1459 7.22567 35.4645 7.22567Z" fill="white"/>
<path d="M39.0082 1.12399L40.7017 1.12399L40.7017 4.10575L40.7358 4.10575C41.0287 3.36392 41.6124 2.99321 42.4878 2.99321C43.0929 2.99321 43.5679 3.17375 43.9129 3.53484C44.258 3.89913 44.4301 4.40184 44.4301 5.04297L44.4301 8.51782L42.6977 8.51782L42.6977 5.41368C42.6977 5.10155 42.613 4.8544 42.4437 4.67185C42.2716 4.49292 42.0373 4.40345 41.7412 4.40345C41.4451 4.40345 41.2044 4.50134 41.0186 4.69633C40.8301 4.89492 40.7358 5.14889 40.7358 5.45782L40.7358 8.51782L39.0082 8.51782L39.0082 1.12399Z" fill="white"/>
<path d="M47.5053 7.38685C47.7917 7.38685 48.0324 7.31022 48.2274 7.15736C48.4324 7.00129 48.5352 6.80109 48.5352 6.55715L48.5352 6.18122L47.5345 6.24983C47.027 6.28554 46.7731 6.47731 46.7731 6.82556C46.7731 6.99808 46.8401 7.13489 46.9733 7.23559C47.1036 7.3363 47.281 7.38685 47.5053 7.38685ZM46.8954 8.58726C46.3779 8.58726 45.9454 8.4344 45.5971 8.12868C45.2392 7.81975 45.0603 7.42416 45.0603 6.94271C45.0603 5.92445 45.7937 5.36958 47.2613 5.27851L48.5352 5.20027L48.5352 4.88814C48.5352 4.67028 48.4617 4.50097 48.3153 4.38061C48.1725 4.26346 47.9771 4.20488 47.7299 4.20488C47.4988 4.20488 47.3067 4.26025 47.1538 4.37058C47.0074 4.4781 46.9211 4.61812 46.8954 4.79064L45.3383 4.79064C45.3612 4.24059 45.5955 3.79966 46.0413 3.46787C46.4902 3.13286 47.0808 2.96515 47.8126 2.96515C48.5352 2.96515 49.1173 3.13286 49.5598 3.46787C50.0024 3.80608 50.2238 4.24861 50.2238 4.79546L50.2238 8.51424L48.5448 8.51424L48.5448 7.73349L48.5107 7.73349C48.3674 8.00029 48.1448 8.21012 47.8419 8.36298C47.5494 8.51263 47.2336 8.58726 46.8954 8.58726Z" fill="white"/>
<path d="M53.1089 3.08589L54.7879 3.08589L54.7879 4.13023L54.822 4.13023C54.9292 3.78198 55.1229 3.50555 55.4026 3.30053C55.6826 3.09552 56.0064 2.99321 56.3739 2.99321C56.7775 2.99321 57.1109 3.09231 57.3745 3.2909C57.6381 3.49271 57.8086 3.77717 57.8869 4.14507L57.921 4.14507C58.0285 3.79362 58.2335 3.51357 58.536 3.30535C58.8417 3.09712 59.1964 2.99321 59.6 2.99321C60.1304 2.99321 60.5597 3.16252 60.8883 3.50074C61.2169 3.84256 61.3814 4.2883 61.3814 4.83796L61.3814 8.51782L59.6534 8.51782L59.6534 5.27728C59.6534 4.69152 59.3934 4.39864 58.8726 4.39864C58.6287 4.39864 58.4349 4.48008 58.2921 4.64257C58.1456 4.80546 58.0722 5.02331 58.0722 5.29653L58.0722 8.51782L56.4229 8.51782L56.4229 5.2528C56.4229 4.97958 56.3542 4.76815 56.2178 4.6185C56.0842 4.47206 55.8925 4.39864 55.6417 4.39864C55.401 4.39864 55.206 4.48169 55.0563 4.64778C54.9099 4.81348 54.8365 5.03334 54.8365 5.30656L54.8365 8.51782L53.1089 8.51782L53.1089 3.08589Z" fill="white"/>
<path d="M64.4563 7.38685C64.7428 7.38685 64.9835 7.31022 65.1789 7.15736C65.3839 7.00129 65.4862 6.80109 65.4862 6.55715L65.4862 6.18122L64.4856 6.24983C63.9781 6.28554 63.7245 6.47731 63.7245 6.82556C63.7245 6.99808 63.7911 7.13489 63.9243 7.23559C64.0547 7.3363 64.232 7.38685 64.4563 7.38685ZM63.8465 8.58726C63.3289 8.58726 62.8964 8.4344 62.5482 8.12868C62.1903 7.81975 62.0114 7.42416 62.0114 6.94271C62.0114 5.92445 62.7452 5.36958 64.2124 5.27851L65.4862 5.20027L65.4862 4.88814C65.4862 4.67028 65.4132 4.50097 65.2667 4.38061C65.1235 4.26346 64.9281 4.20488 64.681 4.20488C64.4499 4.20488 64.2581 4.26025 64.1048 4.37058C63.9588 4.4781 63.8726 4.61812 63.8465 4.79064L62.2894 4.79064C62.3123 4.24059 62.5466 3.79966 62.9923 3.46787C63.4413 3.13286 64.0318 2.96515 64.764 2.96515C65.4862 2.96515 66.0688 3.13286 66.5113 3.46787C66.9534 3.80608 67.1749 4.24861 67.1749 4.79546L67.1749 8.51424L65.4958 8.51424L65.4958 7.73349L65.4617 7.73349C65.3185 8.00029 65.0958 8.21012 64.7933 8.36298C64.5004 8.51263 64.1847 8.58726 63.8465 8.58726Z" fill="white"/>
<path d="M68.0389 3.08201L69.718 3.08201L69.718 4.10188L69.7521 4.10188C69.9503 3.37329 70.3784 3.00899 71.0356 3.00899C71.1916 3.00899 71.3381 3.03146 71.4749 3.0772L71.4749 4.56086C71.3252 4.49586 71.1399 4.46336 70.9184 4.46336C70.5477 4.46336 70.2628 4.56407 70.0642 4.76587C69.866 4.97089 69.7665 5.26377 69.7665 5.64411L69.7665 8.51394L68.0389 8.51394L68.0389 3.08201Z" fill="white"/>
<path d="M75.4095 3.08589L77.3425 3.08589L75.3903 5.41368L77.4545 8.51782L75.4633 8.51782L74.1116 6.44839L73.7798 6.83395L73.7798 8.51782L72.0518 8.51782L72.0518 1.12399L73.7798 1.12399L73.7798 5.16494L73.8139 5.16494L75.4095 3.08589Z" fill="white"/>
<path d="M80.08 4.19525C79.8035 4.19525 79.5708 4.28793 79.3819 4.47329C79.1933 4.65865 79.0874 4.89616 79.0649 5.18583L81.0854 5.18583C81.0689 4.88653 80.9698 4.64581 80.7877 4.46366C80.6019 4.28472 80.366 4.19525 80.08 4.19525ZM82.6862 6.8059C82.6016 7.36237 82.3283 7.80491 81.8661 8.13349C81.4007 8.46529 80.817 8.63139 80.1141 8.63139C79.2551 8.63139 78.5815 8.38264 78.0936 7.88475C77.6053 7.38685 77.3614 6.70038 77.3614 5.82495C77.3614 4.94992 77.6037 4.25343 78.0888 3.73627C78.5734 3.22233 79.229 2.96515 80.0555 2.96515C80.8655 2.96515 81.5131 3.21069 81.9977 3.70217C82.4796 4.19686 82.7203 4.85724 82.7203 5.68373L82.7203 6.17641L79.0453 6.17641L79.0453 6.28393C79.0453 6.61573 79.146 6.88414 79.3478 7.08915C79.5496 7.29738 79.8132 7.40169 80.1385 7.40169C80.6557 7.40169 80.9843 7.2031 81.1243 6.8059L82.6862 6.8059Z" fill="white"/>
<path d="M85.5757 1.88851L85.5757 3.08892L86.5567 3.08892L86.5567 4.36756L85.5757 4.36756L85.5757 6.68573C85.5757 7.06648 85.7855 7.25665 86.2052 7.25665C86.3256 7.25665 86.4427 7.24862 86.5567 7.23258L86.5567 8.46227C86.3581 8.50801 86.1045 8.53048 85.7952 8.53048C85.0991 8.53048 84.5996 8.41333 84.2971 8.17902C83.9978 7.94833 83.8481 7.56598 83.8481 7.03237L83.8481 4.36756L83.1207 4.36756L83.1207 3.08892L83.8481 3.08892L83.8481 1.88851L85.5757 1.88851Z" fill="white"/>
<path d="M87.3141 3.08664L89.0466 3.08664L89.0466 8.51857L87.3141 8.51857L87.3141 3.08664ZM88.1779 2.63769C87.9304 2.63769 87.7222 2.55624 87.5533 2.39375C87.3775 2.23086 87.2897 2.02745 87.2897 1.78352C87.2897 1.54279 87.3775 1.33938 87.5533 1.17368C87.7222 1.01079 87.9304 0.92935 88.1779 0.92935C88.4251 0.92935 88.6349 1.01079 88.8074 1.17368C88.9832 1.33938 89.071 1.54279 89.071 1.78352C89.071 2.02745 88.9832 2.23086 88.8074 2.39375C88.6381 2.55624 88.4283 2.63769 88.1779 2.63769Z" fill="white"/>
<path d="M89.926 3.08589L91.6047 3.08589L91.6047 4.10575L91.6388 4.10575C91.9385 3.36392 92.5158 2.99321 93.3716 2.99321C93.9766 2.99321 94.4516 3.17375 94.7967 3.53484C95.1381 3.89592 95.309 4.39703 95.309 5.03816L95.309 8.51782L93.5766 8.51782L93.5766 5.40887C93.5766 5.09352 93.4952 4.84758 93.3323 4.67186C93.1666 4.49292 92.9355 4.40345 92.6394 4.40345C92.3465 4.40345 92.109 4.50134 91.9268 4.69633C91.7447 4.89172 91.6536 5.14368 91.6536 5.45301L91.6536 8.51782L89.926 8.51782L89.926 3.08589Z" fill="white"/>
<path d="M98.7939 7.17672C99.1192 7.17672 99.3744 7.05636 99.5598 6.81564C99.7487 6.5717 99.843 6.23148 99.843 5.79537C99.843 5.35966 99.7487 5.01302 99.5598 4.75584C99.3712 4.49907 99.1156 4.37028 98.7939 4.37028C98.4717 4.37028 98.2177 4.49747 98.0324 4.75103C97.8438 5.0082 97.7491 5.35484 97.7491 5.79055C97.7491 6.22987 97.8418 6.5717 98.0276 6.81564C98.2129 7.05636 98.4685 7.17672 98.7939 7.17672ZM98.7646 10.5296C97.9967 10.5296 97.3736 10.38 96.8954 10.0807C96.4103 9.77814 96.1567 9.37453 96.1339 8.87021L97.8125 8.87021C97.8486 9.02307 97.959 9.14664 98.1447 9.24093C98.3269 9.3324 98.5431 9.37774 98.7939 9.37774C99.1092 9.37774 99.3616 9.30311 99.5501 9.15346C99.7387 9.0002 99.8334 8.79358 99.8334 8.5336L99.8334 7.50371L99.7989 7.50371C99.6886 7.79338 99.4851 8.02447 99.1891 8.19659C98.8898 8.37232 98.5415 8.46018 98.1447 8.46018C97.4907 8.46018 96.9684 8.22427 96.578 7.75245C96.1812 7.27101 95.9826 6.61383 95.9826 5.78093C95.9826 4.91873 96.1776 4.2419 96.5684 3.75082C96.9587 3.25613 97.494 3.00899 98.174 3.00899C98.558 3.00899 98.8978 3.10327 99.1939 3.29184C99.4803 3.4772 99.6869 3.72474 99.8137 4.03367L99.843 4.03367L99.843 3.08201L101.566 3.08201L101.566 8.40642C101.566 9.05076 101.31 9.5647 100.799 9.94866C100.289 10.3358 99.6103 10.5296 98.7646 10.5296Z" fill="white"/>
<path d="M24.8581 13.0471L23.3295 13.0471L22.9259 14.162L22.5604 14.162L23.9221 10.5227L24.2652 10.5227L25.6248 14.162L25.2617 14.162L24.8581 13.0471ZM23.433 12.7498L24.7546 12.7498L24.1015 10.9488L24.0862 10.9488L23.433 12.7498Z" fill="white"/>
<path d="M28.1546 14.1647L27.7133 14.1647L26.3817 12.8355L26.3664 12.8355L26.3664 14.1647L26.0358 14.1647L26.0358 11.4485L26.3664 11.4485L26.3664 12.6714L26.3817 12.6714L27.6804 11.4485L28.104 11.4485L26.7195 12.7396L28.1546 14.1647Z" fill="white"/>
<path d="M30.4748 11.7282L29.5468 11.7282L29.5468 14.1647L29.2166 14.1647L29.2166 11.7282L28.2882 11.7282L28.2882 11.4485L30.4748 11.4485L30.4748 11.7282Z" fill="white"/>
<path d="M31.1109 15.1104C31.0535 15.1104 30.9982 15.1039 30.9444 15.0903L30.9444 14.8054C30.9945 14.8171 31.0495 14.8231 31.1081 14.8231C31.2309 14.8231 31.3312 14.787 31.4082 14.7144C31.484 14.6438 31.5522 14.523 31.6128 14.3513L31.6734 14.1824L30.6519 11.4485L31.0098 11.4485L31.8423 13.8269L31.8499 13.8269L32.6844 11.4485L33.0375 11.4485L31.9783 14.2959C31.8608 14.6153 31.7412 14.8307 31.62 14.9414C31.5009 15.0542 31.3312 15.1104 31.1109 15.1104Z" fill="white"/>
<path d="M34.2512 13.9048C34.4952 13.9048 34.6986 13.8317 34.8619 13.6853C35.0264 13.5409 35.109 13.3607 35.109 13.1457L35.109 12.8456L34.3142 12.9009C33.8484 12.9314 33.6157 13.1019 33.6157 13.4129C33.6157 13.5593 33.6747 13.6777 33.7922 13.7688C33.9098 13.8594 34.0631 13.9048 34.2512 13.9048ZM34.1858 14.1972C33.915 14.1972 33.6955 14.125 33.5274 13.9806C33.3593 13.8341 33.2751 13.6444 33.2751 13.4105C33.2751 12.9379 33.6081 12.6783 34.2741 12.6313L35.109 12.5756L35.109 12.3437C35.109 12.1451 35.0492 11.9914 34.9297 11.8823C34.8089 11.7727 34.6388 11.7182 34.4201 11.7182C34.2304 11.7182 34.0731 11.7635 33.9487 11.8542C33.8243 11.9469 33.7469 12.0737 33.7164 12.2353L33.3963 12.2353C33.4099 11.9962 33.513 11.8012 33.7064 11.65C33.8982 11.4971 34.1369 11.4205 34.4229 11.4205C34.7339 11.4205 34.9818 11.5011 35.1668 11.6628C35.3501 11.8241 35.4416 12.042 35.4416 12.316L35.4416 14.1671L35.1238 14.1671L35.1238 13.6476L35.1162 13.6476C35.0424 13.8125 34.9212 13.9453 34.7531 14.046C34.5834 14.1471 34.394 14.1972 34.1858 14.1972Z" fill="white"/>
<path d="M36.6773 12.9968C36.6468 13.3872 36.5846 13.6728 36.4908 13.8546C36.3744 14.0764 36.1955 14.1876 35.9535 14.1876C35.8978 14.1876 35.8472 14.1792 35.8019 14.1623L35.8019 13.857C35.8424 13.8706 35.8877 13.877 35.9383 13.877C36.0711 13.877 36.1718 13.7948 36.2408 13.6299C36.2998 13.4887 36.3399 13.2736 36.362 12.9844C36.4005 12.5808 36.4358 12.0688 36.4679 11.4485L38.2055 11.4485L38.2055 14.1647L37.8753 14.1647L37.8753 11.7282L36.768 11.7282C36.7411 12.2461 36.711 12.669 36.6773 12.9968Z" fill="white"/>
<path d="M39.184 12.6538L39.184 13.8847L39.7718 13.8847C39.9704 13.8847 40.1293 13.8285 40.2484 13.7158C40.3664 13.6046 40.4249 13.4562 40.4249 13.2692C40.4249 13.0811 40.3656 12.9314 40.246 12.8203C40.1285 12.7095 39.9704 12.6538 39.7718 12.6538L39.184 12.6538ZM38.8538 11.4485L39.184 11.4485L39.184 12.3713L39.7718 12.3713C40.0711 12.3713 40.3098 12.4524 40.4879 12.6136C40.6681 12.7765 40.7579 12.9952 40.7579 13.2692C40.7579 13.5416 40.6681 13.7595 40.4879 13.9228C40.3098 14.0841 40.0711 14.1647 39.7718 14.1647L38.8538 14.1647L38.8538 11.4485Z" fill="white"/>
<path d="M43.1136 12.8937L41.5902 12.8937L41.5902 14.1647L41.2596 14.1647L41.2596 11.4485L41.5902 11.4485L41.5902 12.6136L43.1136 12.6136L43.1136 11.4485L43.4438 11.4485L43.4438 14.1647L43.1136 14.1647L43.1136 12.8937Z" fill="white"/>
<path d="M46.4028 11.4485L46.7334 11.4485L46.7334 14.1647L46.4028 14.1647L46.4028 11.4485ZM44.4252 12.6538L44.4252 13.8847L45.013 13.8847C45.2116 13.8847 45.3705 13.8285 45.4896 13.7158C45.6076 13.6046 45.6662 13.4562 45.6662 13.2692C45.6662 13.0811 45.6068 12.9314 45.4872 12.8203C45.3697 12.7095 45.2116 12.6538 45.013 12.6538L44.4252 12.6538ZM44.095 11.4485L44.4252 11.4485L44.4252 12.3713L45.013 12.3713C45.3123 12.3713 45.551 12.4524 45.7295 12.6136C45.9093 12.7765 45.9992 12.9952 45.9992 13.2692C45.9992 13.5416 45.9093 13.7595 45.7295 13.9228C45.551 14.0841 45.3123 14.1647 45.013 14.1647L44.095 14.1647L44.095 11.4485Z" fill="white"/>
<path d="M48.0144 10.3158C48.0144 10.467 48.0598 10.5898 48.1508 10.6841C48.2431 10.7796 48.3659 10.8277 48.5187 10.8277C48.672 10.8277 48.794 10.7796 48.8846 10.6841C48.9753 10.5898 49.0207 10.467 49.0207 10.3158L49.2754 10.3158C49.2754 10.5324 49.2064 10.7066 49.0688 10.8378C48.9292 10.9706 48.7458 11.0372 48.5187 11.0372C48.2901 11.0372 48.1071 10.9706 47.9691 10.8378C47.8295 10.7066 47.7597 10.5324 47.7597 10.3158L48.0144 10.3158ZM47.3837 14.1746L47.3837 11.4584L47.7143 11.4584L47.7143 13.655L47.7296 13.655L49.273 11.4584L49.6032 11.4584L49.6032 14.1746L49.273 14.1746L49.273 11.978L49.2554 11.978L47.7143 14.1746L47.3837 14.1746Z" fill="white"/>
<path d="M51.3965 14.1647L51.3965 11.4485L51.7925 11.4485L52.867 13.7234L52.8818 13.7234L53.9538 11.4485L54.3374 11.4485L54.3374 14.1647L54.0044 14.1647L54.0044 12.0536L53.9891 12.0536L52.9954 14.1118L52.7358 14.1118L51.742 12.0536L51.7267 12.0536L51.7267 14.1647L51.3965 14.1647Z" fill="white"/>
<path d="M55.8534 13.9048C56.0969 13.9048 56.3007 13.8317 56.4636 13.6853C56.6285 13.5409 56.7108 13.3607 56.7108 13.1457L56.7108 12.8456L55.9164 12.9009C55.4506 12.9314 55.2179 13.1019 55.2179 13.4129C55.2179 13.5593 55.2765 13.6777 55.3944 13.7688C55.512 13.8594 55.6648 13.9048 55.8534 13.9048ZM55.7876 14.1972C55.5172 14.1972 55.2977 14.125 55.1296 13.9806C54.9611 13.8341 54.8773 13.6444 54.8773 13.4105C54.8773 12.9379 55.2103 12.6783 55.8759 12.6313L56.7108 12.5756L56.7108 12.3437C56.7108 12.1451 56.651 11.9914 56.5318 11.8823C56.4107 11.7727 56.241 11.7182 56.0223 11.7182C55.8321 11.7182 55.6753 11.7635 55.5505 11.8542C55.4261 11.9469 55.3487 12.0737 55.3186 12.2353L54.9984 12.2353C55.0117 11.9962 55.1152 11.8012 55.3086 11.65C55.5003 11.4971 55.7391 11.4205 56.0247 11.4205C56.336 11.4205 56.584 11.5011 56.7689 11.6628C56.9523 11.8241 57.0438 12.042 57.0438 12.316L57.0438 14.1671L56.726 14.1671L56.726 13.6476L56.7184 13.6476C56.6446 13.8125 56.5234 13.9453 56.3553 14.046C56.1852 14.1471 55.9962 14.1972 55.7876 14.1972Z" fill="white"/>
<path d="M58.9256 11.4205C59.2686 11.4205 59.5475 11.5485 59.7629 11.804C59.9764 12.0596 60.0831 12.3942 60.0831 12.8079C60.0831 13.2215 59.9764 13.5569 59.7629 13.8141C59.5511 14.0697 59.2735 14.1972 58.9304 14.1972C58.717 14.1972 58.5268 14.1427 58.3603 14.0335C58.199 13.9292 58.0799 13.7872 58.0024 13.6071L57.9948 13.6071L57.9948 15.0574L57.6618 15.0574L57.6618 11.451L57.9772 11.451L57.9772 12.0131L57.9848 12.0131C58.057 11.8385 58.1782 11.6961 58.3479 11.587C58.5212 11.4759 58.7138 11.4205 58.9256 11.4205ZM58.8674 13.8971C59.1298 13.8971 59.3417 13.798 59.5029 13.5998C59.6626 13.3996 59.7425 13.1364 59.7425 12.8103C59.7425 12.4841 59.6626 12.2201 59.5029 12.0183C59.3417 11.8181 59.1298 11.7182 58.8674 11.7182C58.6086 11.7182 58.3984 11.8189 58.2367 12.0207C58.0738 12.2241 57.9924 12.4865 57.9924 12.8079C57.9924 13.1304 58.0738 13.3928 58.2367 13.5946C58.3984 13.7964 58.6086 13.8971 58.8674 13.8971Z" fill="white"/>
<path d="M62.7159 14.1647L62.2746 14.1647L60.943 12.8355L60.9278 12.8355L60.9278 14.1647L60.5972 14.1647L60.5972 11.4485L60.9278 11.4485L60.9278 12.6714L60.943 12.6714L62.2417 11.4485L62.6654 11.4485L61.2808 12.7396L62.7159 14.1647Z" fill="white"/>
<path d="M64.1086 11.7158C63.8647 11.7158 63.6649 11.7988 63.5084 11.9653C63.3504 12.1302 63.2637 12.3477 63.2485 12.6185L64.9383 12.6185C64.9351 12.3477 64.8577 12.1302 64.7064 11.9653C64.5536 11.7988 64.3542 11.7158 64.1086 11.7158ZM65.2513 13.398C65.2108 13.6315 65.088 13.8225 64.883 13.9706C64.6764 14.1218 64.4264 14.1972 64.1339 14.1972C63.7572 14.1972 63.4579 14.0737 63.236 13.8265C63.0142 13.5778 62.903 13.2408 62.903 12.8151C62.903 12.3934 63.0133 12.0552 63.2336 11.8012C63.4555 11.5477 63.7488 11.4205 64.1139 11.4205C64.4701 11.4205 64.7554 11.54 64.9688 11.7788C65.1807 12.0191 65.2866 12.3413 65.2866 12.7445L65.2866 12.8909L63.2485 12.8909L63.2485 12.9086C63.2485 13.2147 63.3303 13.4566 63.4932 13.6351C63.6549 13.8133 63.8707 13.9024 64.1415 13.9024C64.3417 13.9024 64.5123 13.8554 64.6535 13.7611C64.7915 13.6705 64.8806 13.5493 64.9207 13.398L65.2513 13.398Z" fill="white"/>
<path d="M67.7119 11.7282L66.7839 11.7282L66.7839 14.1647L66.4533 14.1647L66.4533 11.7282L65.5253 11.7282L65.5253 11.4485L67.7119 11.4485L67.7119 11.7282Z" fill="white"/>
<path d="M68.1389 14.1647L68.1389 11.4485L68.4691 11.4485L68.4691 13.6452L68.4844 13.6452L70.0278 11.4485L70.3584 11.4485L70.3584 14.1647L70.0278 14.1647L70.0278 11.9681L70.0101 11.9681L68.4691 14.1647L68.1389 14.1647Z" fill="white"/>
<path d="M72.8607 12.8937L71.3374 12.8937L71.3374 14.1647L71.0068 14.1647L71.0068 11.4485L71.3374 11.4485L71.3374 12.6136L72.8607 12.6136L72.8607 11.4485L73.1909 11.4485L73.1909 14.1647L72.8607 14.1647L72.8607 12.8937Z" fill="white"/>
<path d="M74.1718 11.7282L74.1718 14.1647L73.8412 14.1647L73.8412 11.4485L75.564 11.4485L75.564 11.7282L74.1718 11.7282Z" fill="white"/>
<path d="M77.1966 14.1647L77.1966 11.4485L77.5268 11.4485L77.5268 13.6452L77.542 13.6452L79.0855 11.4485L79.4161 11.4485L79.4161 14.1647L79.0855 14.1647L79.0855 11.9681L79.0678 11.9681L77.5268 14.1647L77.1966 14.1647Z" fill="white"/>
<path d="M83.0373 11.7282L81.5392 11.7282L81.5392 14.1647L81.2086 14.1647L81.2086 11.4485L83.3674 11.4485L83.3674 14.1647L83.0373 14.1647L83.0373 11.7282Z" fill="white"/>
<path d="M85.2824 11.4205C85.6254 11.4205 85.9042 11.5485 86.1197 11.804C86.3331 12.0596 86.4398 12.3942 86.4398 12.8079C86.4398 13.2215 86.3331 13.5569 86.1197 13.8141C85.9078 14.0697 85.6302 14.1972 85.2872 14.1972C85.0737 14.1972 84.8836 14.1427 84.7171 14.0335C84.5558 13.9292 84.4366 13.7872 84.3592 13.6071L84.3516 13.6071L84.3516 15.0574L84.0186 15.0574L84.0186 11.451L84.3339 11.451L84.3339 12.0131L84.3415 12.0131C84.4137 11.8385 84.5349 11.6961 84.7046 11.587C84.8779 11.4759 85.0701 11.4205 85.2824 11.4205ZM85.2242 13.8971C85.4866 13.8971 85.6984 13.798 85.8597 13.5998C86.0194 13.3996 86.0992 13.1364 86.0992 12.8103C86.0992 12.4841 86.0194 12.2201 85.8597 12.0183C85.6984 11.8181 85.4866 11.7182 85.2242 11.7182C84.9654 11.7182 84.7552 11.8189 84.5935 12.0207C84.4306 12.2241 84.3491 12.4865 84.3491 12.8079C84.3491 13.1304 84.4306 13.3928 84.5935 13.5946C84.7552 13.7964 84.9654 13.8971 85.2242 13.8971Z" fill="white"/>
<path d="M88.0513 14.1972C87.6782 14.1972 87.3797 14.0713 87.1558 13.8189C86.9307 13.5685 86.818 13.2315 86.818 12.8079C86.818 12.3858 86.9307 12.0484 87.1558 11.7964C87.3797 11.5457 87.6782 11.4205 88.0513 11.4205C88.4264 11.4205 88.7257 11.5457 88.9492 11.7964C89.1747 12.0484 89.287 12.3858 89.287 12.8079C89.287 13.2299 89.1747 13.5669 88.9492 13.8189C88.7257 14.0713 88.4264 14.1972 88.0513 14.1972ZM88.0513 13.8971C88.3289 13.8971 88.5472 13.8004 88.7069 13.6071C88.867 13.4121 88.9468 13.1457 88.9468 12.8079C88.9468 12.4696 88.867 12.2032 88.7069 12.0083C88.5472 11.8149 88.3289 11.7182 88.0513 11.7182C87.7757 11.7182 87.5578 11.8149 87.3981 12.0083C87.2385 12.2032 87.1586 12.4696 87.1586 12.8079C87.1586 13.1457 87.2385 13.4121 87.3981 13.6071C87.5578 13.8004 87.7757 13.8971 88.0513 13.8971Z" fill="white"/>
<path d="M91.6585 11.7282L90.4781 11.7282C90.4529 12.2092 90.4216 12.6321 90.3847 12.9968C90.3494 13.4225 90.2679 13.7134 90.1399 13.8694L90.1399 13.8847L91.6585 13.8847L91.6585 11.7282ZM89.5245 14.8837L89.5245 13.8847L89.7439 13.8847C89.9257 13.7671 90.0356 13.467 90.0745 12.9844C90.1247 12.3621 90.16 11.8502 90.1805 11.4485L91.9911 11.4485L91.9911 13.8847L92.43 13.8847L92.43 14.8837L92.1175 14.8837L92.1175 14.1647L89.8374 14.1647L89.8374 14.8837L89.5245 14.8837Z" fill="white"/>
<path d="M93.706 13.9048C93.9499 13.9048 94.1533 13.8317 94.3162 13.6853C94.4811 13.5409 94.5634 13.3607 94.5634 13.1457L94.5634 12.8456L93.769 12.9009C93.3032 12.9314 93.0705 13.1019 93.0705 13.4129C93.0705 13.5593 93.1295 13.6777 93.247 13.7688C93.3646 13.8594 93.5178 13.9048 93.706 13.9048ZM93.6406 14.1972C93.3698 14.1972 93.1503 14.125 92.9822 13.9806C92.8141 13.8341 92.7299 13.6444 92.7299 13.4105C92.7299 12.9379 93.0629 12.6783 93.7289 12.6313L94.5634 12.5756L94.5634 12.3437C94.5634 12.1451 94.504 11.9914 94.3844 11.8823C94.2633 11.7727 94.0936 11.7182 93.8749 11.7182C93.6851 11.7182 93.5279 11.7635 93.4035 11.8542C93.2791 11.9469 93.2017 12.0737 93.1712 12.2353L92.851 12.2353C92.8647 11.9962 92.9678 11.8012 93.1612 11.65C93.3529 11.4971 93.5916 11.4205 93.8777 11.4205C94.1886 11.4205 94.4366 11.5011 94.6215 11.6628C94.8049 11.8241 94.8964 12.042 94.8964 12.316L94.8964 14.1671L94.5786 14.1671L94.5786 13.6476L94.571 13.6476C94.4972 13.8125 94.376 13.9453 94.2079 14.046C94.0382 14.1471 93.8488 14.1972 93.6406 14.1972Z" fill="white"/>
<path d="M98.9195 14.1647L98.4806 14.1647L97.2625 12.8355L97.2473 12.8355L97.2473 14.1647L96.9171 14.1647L96.9171 12.8355L96.9018 12.8355L95.6838 14.1647L95.2549 14.1647L96.5688 12.7473L95.2954 11.4485L95.7163 11.4485L96.9018 12.6714L96.9171 12.6714L96.9171 11.4485L97.2473 11.4485L97.2473 12.6714L97.2625 12.6714L98.4481 11.4485L98.8665 11.4485L97.5979 12.7396L98.9195 14.1647Z" fill="white"/>
<path d="M99.3107 14.1647L99.3107 11.4485L99.6413 11.4485L99.6413 13.6452L99.6566 13.6452L101.2 11.4485L101.531 11.4485L101.531 14.1647L101.2 14.1647L101.2 11.9681L101.182 11.9681L99.6413 14.1647L99.3107 14.1647Z" fill="white"/>
<path fill-rule="evenodd" clip-rule="evenodd" d="M12.8867 9.559L12.926 9.40168L14.0665 12.9019L13.9289 13.0986L13.9289 13.0789L13.8896 13.1576C10.6056 17.523 3.64449 16.6775 1.06847 12.2333C-1.66486 7.51392 1.1078 1.28035 6.45648 0.159486C7.00708 0.0611648 7.57734 0.00217245 8.1476 0.00217245C10.6843 0.00217245 13.3586 1.10337 14.7155 3.32543L15.7773 0.434786L19.0809 0.434786L16.5836 7.37627L18.196 11.8597C18.373 12.312 18.8646 12.5676 19.3169 12.4496L19.4546 12.4103L20.3394 15.3796L19.2776 15.6549C17.7634 16.0285 16.2099 15.2616 15.6397 13.8065C15.502 13.5508 15.3644 13.2755 15.2661 12.9806L14.6761 11.4271L14.6368 11.3681L14.6368 11.3484L13.3193 7.3566C12.5917 5.15421 11.2349 4.09234 10.1534 3.65972C9.56343 3.38442 8.89485 3.24677 8.18693 3.24677C5.4536 3.24677 3.25121 5.42951 3.25121 8.10384C3.25121 10.7782 5.4536 12.9609 8.18693 12.9609C10.3893 12.9609 12.2574 11.5254 12.8867 9.559Z" fill="url(#paint0_linear_10_203)"/>
</g>
<defs>
<linearGradient id="paint0_linear_10_203" x1="0.0262678" y1="0.226346" x2="19.6905" y2="0.226346" gradientUnits="userSpaceOnUse">
<stop stop-color="#7A5FFF"/>
<stop offset="1" stop-color="#00E824"/>
</linearGradient>
<clipPath id="clip0_10_203">
<rect width="101.523" height="16.03" fill="white"/>
</clipPath>
</defs>
</svg>
