<svg xmlns="http://www.w3.org/2000/svg" width="52" height="55" viewBox="0 0 52 55" fill="none"><script xmlns=""/>
  <g filter="url(#filter0_dd_1314_1824)">
    <path d="M20.0002 34.2495V20.7492C20.0006 20.6125 20.0383 20.4785 20.1092 20.3616C20.1802 20.2448 20.2816 20.1495 20.4026 20.086C20.5237 20.0225 20.6598 19.9932 20.7962 20.0013C20.9326 20.0094 21.0643 20.0546 21.177 20.1319L30.9273 26.8821C31.3315 27.1618 31.3315 27.8354 30.9273 28.1159L21.177 34.8661C21.0645 34.9442 20.9328 34.99 20.7961 34.9985C20.6595 35.0071 20.5231 34.978 20.4018 34.9144C20.2805 34.8509 20.1789 34.7553 20.1081 34.6381C20.0373 34.5209 20 34.3865 20.0002 34.2495Z" fill="white"/>
  </g>
  <defs>
    <filter id="filter0_dd_1314_1824" x="0" y="0" width="51.2305" height="55" filterUnits="userSpaceOnUse" color-interpolation-filters="sRGB">
      <feFlood flood-opacity="0" result="BackgroundImageFix"/>
      <feColorMatrix in="SourceAlpha" type="matrix" values="0 0 0 0 0 0 0 0 0 0 0 0 0 0 0 0 0 0 127 0" result="hardAlpha"/>
      <feOffset/>
      <feGaussianBlur stdDeviation="10"/>
      <feComposite in2="hardAlpha" operator="out"/>
      <feColorMatrix type="matrix" values="0 0 0 0 0.8423 0 0 0 0 0.585 0 0 0 0 1 0 0 0 1 0"/>
      <feBlend mode="normal" in2="BackgroundImageFix" result="effect1_dropShadow_1314_1824"/>
      <feColorMatrix in="SourceAlpha" type="matrix" values="0 0 0 0 0 0 0 0 0 0 0 0 0 0 0 0 0 0 127 0" result="hardAlpha"/>
      <feOffset/>
      <feGaussianBlur stdDeviation="2"/>
      <feComposite in2="hardAlpha" operator="out"/>
      <feColorMatrix type="matrix" values="0 0 0 0 0.8423 0 0 0 0 0.585 0 0 0 0 1 0 0 0 1 0"/>
      <feBlend mode="normal" in2="effect1_dropShadow_1314_1824" result="effect2_dropShadow_1314_1824"/>
      <feBlend mode="normal" in="SourceGraphic" in2="effect2_dropShadow_1314_1824" result="shape"/>
    </filter>
  </defs>
<script xmlns=""/></svg>