<svg width="273" height="185" viewBox="0 0 273 185" fill="none" xmlns="http://www.w3.org/2000/svg">
<rect width="273" height="185" rx="30" fill="url(#paint0_linear_1_974)"/>
<path d="M120.296 159.51H122.896C123.529 159.51 124.029 159.553 124.396 159.64C124.769 159.727 125.039 159.88 125.206 160.1C125.379 160.313 125.466 160.613 125.466 161V162.23C125.466 162.657 125.372 162.99 125.186 163.23C125.006 163.47 124.716 163.64 124.316 163.74C123.922 163.84 123.389 163.89 122.716 163.89H121.856V166H120.296V159.51ZM122.846 162.82C123.252 162.82 123.539 162.773 123.706 162.68C123.872 162.58 123.956 162.413 123.956 162.18V161.14C123.956 160.927 123.876 160.787 123.716 160.72C123.562 160.653 123.266 160.62 122.826 160.62H121.856V162.82H122.846ZM128.825 166.1C128.525 166.1 128.279 166.09 128.085 166.07C127.892 166.05 127.685 166.01 127.465 165.95C127.225 165.883 127.032 165.79 126.885 165.67C126.739 165.543 126.615 165.367 126.515 165.14C126.415 164.92 126.365 164.653 126.365 164.34V162.91C126.365 162.59 126.415 162.31 126.515 162.07C126.615 161.83 126.745 161.643 126.905 161.51C127.045 161.397 127.229 161.303 127.455 161.23C127.689 161.15 127.915 161.1 128.135 161.08C128.389 161.067 128.619 161.06 128.825 161.06C129.132 161.06 129.375 161.07 129.555 161.09C129.742 161.103 129.945 161.143 130.165 161.21C130.405 161.283 130.599 161.383 130.745 161.51C130.899 161.637 131.029 161.817 131.135 162.05C131.235 162.29 131.285 162.577 131.285 162.91V164.34C131.285 164.64 131.235 164.903 131.135 165.13C131.042 165.357 130.919 165.533 130.765 165.66C130.632 165.773 130.449 165.867 130.215 165.94C129.989 166.007 129.765 166.05 129.545 166.07C129.345 166.09 129.105 166.1 128.825 166.1ZM128.825 165.19C129.099 165.19 129.305 165.17 129.445 165.13C129.585 165.083 129.682 165.013 129.735 164.92C129.795 164.827 129.825 164.69 129.825 164.51V162.68C129.825 162.413 129.755 162.227 129.615 162.12C129.475 162.013 129.212 161.96 128.825 161.96C128.439 161.96 128.175 162.013 128.035 162.12C127.895 162.227 127.825 162.413 127.825 162.68V164.51C127.825 164.69 127.852 164.827 127.905 164.92C127.965 165.013 128.065 165.083 128.205 165.13C128.345 165.17 128.552 165.19 128.825 165.19ZM134.783 166.1C134.53 166.1 134.33 166.093 134.183 166.08C134.037 166.073 133.857 166.057 133.643 166.03C133.43 166.003 133.253 165.957 133.113 165.89C132.98 165.823 132.84 165.723 132.693 165.59C132.42 165.363 132.283 164.977 132.283 164.43V162.82C132.283 162.38 132.383 162.013 132.583 161.72C132.657 161.613 132.763 161.517 132.903 161.43C133.05 161.337 133.197 161.263 133.343 161.21C133.463 161.17 133.623 161.137 133.823 161.11C134.023 161.083 134.2 161.067 134.353 161.06H134.883C135.257 161.06 135.747 161.12 136.353 161.24V162.2C135.667 162.04 135.14 161.96 134.773 161.96C134.1 161.96 133.763 162.187 133.763 162.64V164.42C133.763 164.933 134.133 165.19 134.873 165.19C135.233 165.19 135.75 165.117 136.423 164.97V165.93C135.817 166.043 135.27 166.1 134.783 166.1ZM139.607 166.1C139.354 166.1 139.154 166.093 139.007 166.08C138.861 166.073 138.681 166.057 138.467 166.03C138.254 166.003 138.077 165.957 137.937 165.89C137.804 165.823 137.664 165.723 137.517 165.59C137.244 165.363 137.107 164.977 137.107 164.43V162.82C137.107 162.38 137.207 162.013 137.407 161.72C137.481 161.613 137.587 161.517 137.727 161.43C137.874 161.337 138.021 161.263 138.167 161.21C138.287 161.17 138.447 161.137 138.647 161.11C138.847 161.083 139.024 161.067 139.177 161.06H139.707C140.081 161.06 140.571 161.12 141.177 161.24V162.2C140.491 162.04 139.964 161.96 139.597 161.96C138.924 161.96 138.587 162.187 138.587 162.64V164.42C138.587 164.933 138.957 165.19 139.697 165.19C140.057 165.19 140.574 165.117 141.247 164.97V165.93C140.641 166.043 140.094 166.1 139.607 166.1ZM142.072 161.16H143.532V164.32L145.442 161.16H146.902V166H145.442V162.75L143.532 166H142.072V161.16ZM149.205 164.15C148.825 164.11 148.548 163.997 148.375 163.81C148.202 163.623 148.115 163.343 148.115 162.97V162.45C148.115 161.977 148.268 161.643 148.575 161.45C148.888 161.257 149.408 161.16 150.135 161.16H152.765V166H151.305V164.26H150.745L149.485 166H147.745L149.205 164.15ZM151.305 163.34V162.07H150.535C150.188 162.07 149.942 162.107 149.795 162.18C149.648 162.247 149.575 162.37 149.575 162.55V162.9C149.575 163.093 149.648 163.217 149.795 163.27C149.942 163.317 150.152 163.34 150.425 163.34H151.305Z" fill="url(#paint1_linear_1_974)"/>
<g filter="url(#filter0_dd_1_974)">
<path d="M137.058 114.019C154.592 113.985 168.763 100.141 168.71 83.0965C168.657 66.0526 154.4 52.2634 136.866 52.2975C119.332 52.3317 105.161 66.1763 105.214 83.2202C105.267 100.264 119.524 114.053 137.058 114.019Z" fill="url(#paint2_linear_1_974)"/>
<path d="M136.856 43.258C142.579 43.2468 147.205 38.728 147.187 33.165C147.17 27.602 142.517 23.1014 136.794 23.1126C131.071 23.1238 126.446 27.6425 126.463 33.2055C126.48 38.7685 131.133 43.2691 136.856 43.258Z" fill="white"/>
<path d="M137.124 143.125C142.847 143.114 147.472 138.595 147.455 133.032C147.438 127.469 142.784 122.969 137.061 122.98C131.339 122.991 126.713 127.51 126.73 133.073C126.748 138.636 131.401 143.136 137.124 143.125Z" fill="white"/>
<path d="M107.846 55.0029C111.884 51.0614 111.866 44.686 107.807 40.7631C103.749 36.8402 97.1849 36.8553 93.1471 40.7968C89.1092 44.7383 89.1264 51.1137 93.1853 55.0367C97.2442 58.9596 103.808 58.9445 107.846 55.0029Z" fill="white"/>
<path d="M180.775 125.464C184.813 121.522 184.796 115.147 180.737 111.224C176.678 107.301 170.114 107.316 166.077 111.258C162.039 115.199 162.056 121.575 166.115 125.498C170.174 129.421 176.738 129.405 180.775 125.464Z" fill="white"/>
<path d="M85.5585 93.3202C91.2814 93.3089 95.9068 88.7901 95.8896 83.2272C95.8723 77.6642 91.2191 73.1637 85.4961 73.1749C79.7732 73.1862 75.1478 77.705 75.165 83.2679C75.1822 88.8309 79.8356 93.3314 85.5585 93.3202Z" fill="white"/>
<path d="M188.432 93.0939C194.155 93.0827 198.781 88.564 198.763 83.001C198.746 77.438 194.093 72.9373 188.37 72.9485C182.647 72.9597 178.022 77.4784 178.039 83.0414C178.056 88.6044 182.709 93.1051 188.432 93.0939Z" fill="white"/>
<path d="M180.594 54.8311C184.632 50.8896 184.614 44.5141 180.556 40.5912C176.497 36.6683 169.933 36.6834 165.895 40.625C161.857 44.5665 161.874 50.9419 165.933 54.8648C169.992 58.7877 176.556 58.7726 180.594 54.8311Z" fill="white"/>
<path d="M108.029 125.722C112.067 121.78 112.05 115.405 107.991 111.482C103.932 107.559 97.3685 107.574 93.3307 111.516C89.2928 115.457 89.31 121.832 93.3689 125.755C97.4278 129.678 103.992 129.663 108.029 125.722Z" fill="white"/>
</g>
<defs>
<filter id="filter0_dd_1_974" x="55.1649" y="3.11255" width="163.599" height="160.013" filterUnits="userSpaceOnUse" color-interpolation-filters="sRGB">
<feFlood flood-opacity="0" result="BackgroundImageFix"/>
<feColorMatrix in="SourceAlpha" type="matrix" values="0 0 0 0 0 0 0 0 0 0 0 0 0 0 0 0 0 0 127 0" result="hardAlpha"/>
<feOffset/>
<feGaussianBlur stdDeviation="10"/>
<feComposite in2="hardAlpha" operator="out"/>
<feColorMatrix type="matrix" values="0 0 0 0 0.8423 0 0 0 0 0.585 0 0 0 0 1 0 0 0 0.5 0"/>
<feBlend mode="normal" in2="BackgroundImageFix" result="effect1_dropShadow_1_974"/>
<feColorMatrix in="SourceAlpha" type="matrix" values="0 0 0 0 0 0 0 0 0 0 0 0 0 0 0 0 0 0 127 0" result="hardAlpha"/>
<feOffset/>
<feGaussianBlur stdDeviation="2"/>
<feComposite in2="hardAlpha" operator="out"/>
<feColorMatrix type="matrix" values="0 0 0 0 0.8423 0 0 0 0 0.585 0 0 0 0 1 0 0 0 1 0"/>
<feBlend mode="normal" in2="effect1_dropShadow_1_974" result="effect2_dropShadow_1_974"/>
<feBlend mode="normal" in="SourceGraphic" in2="effect2_dropShadow_1_974" result="shape"/>
</filter>
<linearGradient id="paint0_linear_1_974" x1="13" y1="185" x2="284.99" y2="30.0463" gradientUnits="userSpaceOnUse">
<stop stop-color="#1F0B32"/>
<stop offset="1" stop-color="#1D1B7A"/>
</linearGradient>
<linearGradient id="paint1_linear_1_974" x1="36.2589" y1="107.483" x2="37.5603" y2="178.805" gradientUnits="userSpaceOnUse">
<stop stop-color="#B195FF"/>
<stop offset="1" stop-color="#D795FF"/>
</linearGradient>
<linearGradient id="paint2_linear_1_974" x1="175.536" y1="33.9575" x2="74.8072" y2="61.9381" gradientUnits="userSpaceOnUse">
<stop stop-color="white"/>
<stop offset="0.523958" stop-color="#D795FF"/>
<stop offset="1" stop-color="#7BC2FE"/>
</linearGradient>
</defs>
</svg>
