<svg width="274" height="185" viewBox="0 0 274 185" fill="none" xmlns="http://www.w3.org/2000/svg">
<rect x="0.5" width="273" height="185" rx="30" fill="url(#paint0_linear_1_734)"/>
<g filter="url(#filter0_dd_1_734)">
<path d="M190.923 79.3662C190.194 78.2032 189.73 76.8882 189.566 75.5183C189.495 75.0086 189.431 74.4962 189.398 73.9823C189.339 73.0816 189.542 72.21 189.738 71.3424C190.12 69.6566 190.367 67.9668 190.066 66.2331C189.684 63.7784 188.631 61.4821 187.028 59.6091C186.279 58.7468 185.366 58.0823 184.45 57.4237C183.414 56.6797 182.437 55.8815 181.817 54.718C181.774 54.6361 181.705 54.5689 181.654 54.4907C181.08 53.6006 180.529 52.6991 180.321 51.6311C180.253 51.2786 180.188 50.9251 180.107 50.5751C179.88 49.5876 179.716 48.5769 179.397 47.6205C178.725 45.6046 177.474 43.9699 175.929 42.5624C174.479 41.2186 172.706 40.2891 170.791 39.8686C170.251 39.7503 169.713 39.6236 169.177 39.4889C168.378 39.3245 167.615 39.0147 166.924 38.5741C166.456 38.2489 165.996 37.9107 165.516 37.6042C164.769 37.1048 164.132 36.453 163.646 35.69C163.272 35.1361 162.906 34.5767 162.535 34.0199C161.786 32.8698 160.828 31.8765 159.712 31.0938C157.565 29.6092 155.211 28.7383 152.601 28.7404C151.743 28.7819 150.889 28.8806 150.045 29.0363C149.392 29.1254 148.743 29.2523 148.09 29.3483C147.222 29.4731 146.38 29.2617 145.535 29.116C144.314 28.9447 143.149 28.4884 142.13 27.7826C141.756 27.5097 141.367 27.2546 140.973 27.0146C140.433 26.686 139.897 26.3452 139.332 26.0685C137.765 25.3327 136.054 24.9679 134.329 25.0022C132.139 24.9986 130.066 25.4757 128.188 26.6719C127.706 26.9784 127.237 27.3045 126.753 27.6079C126.282 27.9026 125.804 28.1817 125.326 28.4627C124.76 28.7925 124.094 28.8959 123.458 28.7524C122.706 28.6027 121.95 28.4644 121.207 28.2779C119.451 27.7963 117.607 27.7509 115.83 28.1457C113.338 28.7349 111.113 29.8283 109.37 31.7865C108.846 32.3757 108.398 33.0345 107.908 33.6568C107.515 34.1562 107.114 34.6494 106.712 35.1414C106.408 35.522 105.976 35.7733 105.5 35.846C104.728 35.9713 103.96 36.134 103.183 36.2075C100.889 36.3997 98.7001 37.2702 96.8849 38.7116C94.7742 40.3832 93.2607 42.4666 92.5468 45.1183C92.4091 45.6305 92.2517 46.1374 92.0888 46.6421C91.4905 48.606 90.1662 50.2581 88.397 51.2474C87.7413 51.622 87.0839 51.994 86.4369 52.384C85.6489 52.8426 84.932 53.4182 84.3102 54.0916C81.6045 57.1105 80.3478 60.6104 80.9046 64.7235C81.032 65.6657 81.1401 66.6264 80.9366 67.5725C80.78 68.3033 80.5492 69.017 80.3678 69.7428C80.1547 70.5612 79.7839 71.328 79.2769 71.9988C78.7988 72.6496 78.3053 73.2887 77.8239 73.9372C77.0319 74.979 76.4504 76.1709 76.1131 77.4433C75.9077 78.2116 75.7575 78.994 75.6637 79.7845C75.4181 82.083 75.6802 84.3111 76.7219 86.4008C77.0554 87.0696 77.4097 87.7277 77.753 88.3913C78.0757 89.0153 78.417 89.6487 78.4949 90.3502C78.5943 91.247 78.9323 92.1021 78.885 93.0249C78.8647 93.4253 78.9792 93.8309 78.9985 94.236C79.0437 95.1542 78.8145 96.0345 78.6 96.9143C78.2924 98.1741 77.9714 99.431 77.9528 100.75C78.0314 101.448 78.0689 102.154 78.1965 102.842C78.5861 105.152 79.5932 107.308 81.1066 109.072C81.8448 109.921 82.7367 110.589 83.6166 111.27C84.5591 111.971 85.3606 112.851 85.9767 113.862C86.6192 114.911 87.0394 116.085 87.2102 117.31C87.3687 118.501 87.4815 119.712 87.9123 120.84C89.4217 124.794 92.0836 127.516 96.1404 128.716C96.9648 128.96 97.7971 129.18 98.6096 129.46C99.73 129.834 100.687 130.597 101.311 131.616C101.688 132.223 102.059 132.837 102.393 133.47C103.467 135.528 105.116 137.215 107.131 138.318C108.824 139.26 110.61 139.899 112.558 139.911C113.461 139.916 114.364 139.811 115.267 139.743C116.123 139.677 116.978 139.532 117.834 139.702C118.285 139.792 118.731 139.905 119.177 140.02C120.297 140.31 121.385 140.674 122.31 141.423C122.731 141.763 123.174 142.075 123.594 142.415C125.292 143.806 127.347 144.668 129.513 144.9C131.93 145.177 134.26 144.908 136.437 143.723C137.1 143.363 137.756 142.986 138.417 142.625C139.042 142.254 139.724 141.996 140.435 141.861C141.208 141.742 141.983 141.636 142.759 141.543C143.032 141.501 143.31 141.5 143.583 141.541C144.487 141.709 145.395 141.869 146.283 142.104C148.014 142.562 149.753 142.741 151.521 142.387C154.715 141.747 157.392 140.243 159.33 137.512C159.419 137.386 159.52 137.267 159.612 137.141C160.359 136.068 161.309 135.159 162.407 134.467C163.647 133.706 164.91 133.105 166.362 132.923C167.245 132.815 168.121 132.651 168.984 132.432C172.386 131.555 176.114 128.226 177.186 124.355C177.307 123.919 177.434 123.485 177.543 123.046C177.87 121.72 178.314 120.467 179.131 119.338C179.961 118.19 180.838 117.134 182.069 116.423C182.443 116.207 182.804 115.968 183.167 115.734C183.917 115.275 184.615 114.731 185.247 114.113C186.722 112.594 187.806 110.727 188.403 108.679C188.847 107.325 189.006 105.89 188.871 104.469C188.769 103.569 188.645 102.671 188.541 101.772C188.423 100.981 188.442 100.176 188.595 99.3923C188.73 98.7998 188.878 98.2101 189.004 97.6163C189.137 96.9719 189.384 96.358 189.734 95.8046C190.118 95.2012 190.515 94.607 190.926 94.0217C191.836 92.7773 192.498 91.3622 192.872 89.8577C193.096 88.8989 193.217 87.9183 193.234 86.9328C193.266 84.9977 192.961 83.1298 192.075 81.3966C191.725 80.7004 191.34 80.0226 190.923 79.3662ZM189.762 87.6941C189.625 89.2769 189.051 90.7882 188.106 92.052C187.595 92.7547 187.127 93.492 186.672 94.2328C186.231 94.9682 185.908 95.7703 185.715 96.6088C185.648 96.8795 185.541 97.1397 185.451 97.4044C185.425 97.4603 185.403 97.5187 185.386 97.5784C185.287 98.2401 185.193 98.9027 185.094 99.5642C184.991 100.482 185.01 101.41 185.151 102.322C185.259 103.253 185.404 104.181 185.472 105.115C185.639 107.386 184.209 110.929 181.77 112.497C181.161 112.89 180.548 113.278 179.94 113.673C178.804 114.368 177.818 115.289 177.041 116.382C176.964 116.495 176.846 116.58 176.761 116.69C176.631 116.858 176.508 117.032 176.392 117.211C176.308 117.34 176.255 117.493 176.162 117.614C175.443 118.573 174.911 119.665 174.598 120.83C174.413 121.474 174.226 122.12 174.073 122.774C173.52 125.133 172.091 126.82 170.157 128.127C169.168 128.763 168.054 129.17 166.894 129.32C165.91 129.478 164.921 129.632 163.959 129.888C163.289 130.106 162.634 130.373 162.001 130.686C161.692 130.818 161.393 130.974 161.089 131.12C161.02 131.152 160.953 131.19 160.889 131.233C160.529 131.494 160.177 131.77 159.809 132.019C158.946 132.619 158.18 133.354 157.539 134.196C157.175 134.66 156.804 135.119 156.46 135.599C155.324 137.18 153.778 138.136 151.965 138.691C151.154 138.945 150.31 139.077 149.461 139.084C148.713 139.064 147.97 138.952 147.249 138.748C146.262 138.522 145.281 138.249 144.281 138.108C143.576 138.008 142.846 138.092 142.127 138.099C142.005 138.099 141.884 138.135 141.761 138.139C141.533 138.116 141.303 138.12 141.076 138.153C140.004 138.467 138.858 138.5 137.846 139.038C137.166 139.398 136.48 139.747 135.804 140.118C134.98 140.569 134.175 141.071 133.244 141.264C130.566 141.821 128.057 141.489 125.82 139.762C125.161 139.252 124.499 138.742 123.821 138.257C122.99 137.662 122.064 137.22 121.084 136.949C120.881 136.883 120.681 136.806 120.485 136.719C120.404 136.676 120.319 136.641 120.231 136.613C119.586 136.485 118.941 136.355 118.293 136.243C117.395 136.114 116.485 136.104 115.584 136.213C114.82 136.285 114.058 136.375 113.293 136.425C111.543 136.54 109.966 135.978 108.483 135.089C107.29 134.395 106.3 133.387 105.617 132.172C105.231 131.479 104.836 130.791 104.433 130.108C103.244 128.046 101.308 126.541 99.0423 125.918C98.4231 125.736 97.8058 125.548 97.1817 125.39C94.6317 124.74 92.8855 123.082 91.6172 120.816C91.0334 119.772 90.8567 118.613 90.6916 117.451C90.5331 116.337 90.4012 115.211 89.9636 114.168C89.1224 112.163 88.0201 110.34 86.2912 108.983C85.8168 108.61 85.3566 108.219 84.8736 107.86C83.1528 106.581 82.182 104.816 81.6728 102.752C81.3464 101.411 81.3549 100.007 81.6976 98.6694C81.9616 97.6739 82.1747 96.6652 82.3361 95.6474C82.4194 94.8868 82.4265 94.1198 82.357 93.3578C82.3424 93.1315 82.2882 92.352 82.2027 91.6562C82.1427 91.1674 82.0911 90.685 82.0301 90.2837C81.8916 88.8895 81.3 87.7397 80.6573 86.5213C80.3301 85.9023 80.003 85.2821 79.7003 84.6493C79.1231 83.3792 78.892 81.9738 79.0312 80.5813C79.0786 79.9739 79.1692 79.3708 79.3021 78.7768C79.5293 77.7505 79.9764 76.7882 80.6113 75.9587C81.1156 75.2886 81.6274 74.6243 82.1173 73.9427C82.7838 72.9861 83.3012 71.9301 83.6507 70.8122C83.8523 70.2065 83.9607 69.5863 84.139 68.9808C84.5205 67.6848 84.4923 66.3564 84.3816 65.0261C84.3361 64.4811 84.2873 63.9363 84.2388 63.3913C84.0627 61.3885 84.6444 59.5931 85.6845 57.9258C86.3635 56.8009 87.3126 55.8707 88.4422 55.2232C89.1803 54.8068 89.9149 54.3832 90.6391 53.9423C91.6198 53.3258 92.4915 52.545 93.2178 51.6335C94.3163 50.2999 95.115 48.7372 95.558 47.0556C95.6932 46.559 95.8642 46.0716 96.0017 45.5765C96.716 42.9859 99.8103 40.0198 103.116 39.7426C103.955 39.6721 104.788 39.512 105.623 39.3953C107.211 39.1952 108.657 38.3538 109.633 37.0606C110.11 36.4487 110.603 35.8463 111.037 35.2038C112.548 32.9718 114.695 31.8438 117.26 31.4387C118.402 31.258 119.517 31.4716 120.632 31.7236C121.574 31.9362 122.525 32.1076 123.478 32.259C124.78 32.4659 125.979 32.0989 127.099 31.4577C127.873 31.0139 128.633 30.5378 129.367 30.0268C131.727 28.3831 134.283 28.1524 136.981 28.8748C137.63 29.0692 138.247 29.3627 138.809 29.7455C139.538 30.2094 140.253 30.6962 140.986 31.1517C141.942 31.7157 142.976 32.1297 144.053 32.3797C144.649 32.5341 145.249 32.5897 145.843 32.7179C147.255 33.0232 148.652 32.8441 150.047 32.5866C150.952 32.4186 151.855 32.1849 152.781 32.2427C155.5 32.4119 157.806 33.4518 159.497 35.6953C159.991 36.3517 160.418 37.0611 160.881 37.7422C161.596 38.78 162.473 39.6908 163.479 40.4379C164.007 40.8384 164.576 41.1579 165.114 41.533C166.167 42.2715 167.369 42.6509 168.601 42.9423C169.034 43.0445 169.468 43.1475 169.903 43.2406C172.401 43.7755 174.186 45.3046 175.542 47.4345C176.165 48.4142 176.419 49.5201 176.643 50.6438C176.814 51.5961 177.033 52.5386 177.299 53.4678C177.543 54.124 177.831 54.7619 178.163 55.3768C178.281 55.6295 178.413 55.8757 178.54 56.1244C178.576 56.2093 178.619 56.2909 178.669 56.3684C178.918 56.7025 179.187 57.0215 179.423 57.3649C180.102 58.3143 180.93 59.1443 181.872 59.8218C182.291 60.1383 182.71 60.4566 183.139 60.7578C184.926 62.0077 185.927 63.7863 186.496 65.8678C186.909 67.375 186.794 68.8646 186.449 70.3644C186.261 71.1847 186.132 72.0204 186.004 72.8532C185.891 73.6756 185.918 74.5118 186.082 75.3251C186.098 75.3695 186.106 75.4158 186.107 75.4629C186.013 76.1543 186.34 76.7716 186.444 77.4277C186.634 78.6167 187.143 79.6876 187.74 80.7157C188.076 81.2943 188.416 81.8703 188.754 82.4475C189.706 84.0723 189.916 85.8471 189.761 87.6936L189.762 87.6941Z" fill="white"/>
<path d="M166.252 85.0176C166.243 67.0805 151.954 52.6218 134.551 52.5472C116.823 52.4713 102.586 67.2024 102.557 84.9526C102.527 102.703 116.703 117.462 134.396 117.47C151.947 117.477 166.251 102.904 166.252 85.0176ZM134.325 114.846C118.096 114.807 105.111 101.313 105.132 84.9869C105.157 68.6311 118.363 55.1828 134.413 55.1667C150.801 55.1951 163.702 68.8382 163.679 85.0539C163.656 101.235 150.749 114.885 134.325 114.846Z" fill="white"/>
<path d="M167.968 64.9618L166.365 65.5292C166.42 65.7192 166.454 65.8536 166.498 65.9852C166.746 66.7241 167.009 67.4583 167.241 68.2027C167.306 68.4603 167.517 68.6542 167.775 68.6935C170.078 69.2887 172.377 69.9022 174.676 70.511C174.831 70.5521 174.985 70.6018 175.139 70.6476C175.141 70.6836 175.144 70.7196 175.146 70.7554C174.386 71.027 173.629 71.3073 172.865 71.5675C172.088 71.8315 171.328 72.1543 170.518 72.3612L170.212 71.5889L168.596 72.1687L169.918 76.0478L171.541 75.4718L171.211 74.4158C173.244 73.684 175.246 72.9758 177.268 72.2757C177.412 72.653 177.533 72.9669 177.665 73.312L179.28 72.7416C179.235 72.5784 179.205 72.4437 179.161 72.3139C178.911 71.5754 178.636 70.8446 178.415 70.0975C178.343 69.7942 178.093 69.5669 177.789 69.5275C175.451 68.9436 173.118 68.341 170.783 67.7431C170.651 67.7095 170.522 67.6644 170.392 67.6246L170.386 67.5139L175.075 65.858C175.19 66.1292 175.285 66.3536 175.395 66.6142L177.013 66.0425L175.713 62.2266L174.094 62.8011C174.197 63.1578 174.285 63.4657 174.384 63.8091L168.331 65.9451L167.968 64.9618Z" fill="white"/>
<path d="M160.555 54.9091L159.221 55.9738C159.306 56.0993 159.369 56.2037 159.442 56.2999C159.932 56.9419 160.437 57.5719 160.907 58.2278C161.048 58.4527 161.31 58.5674 161.567 58.5158C162.284 58.4438 163.003 58.3958 163.722 58.3397C165.128 58.2276 166.535 58.1157 167.941 58.0037C168.345 57.9722 168.751 57.9538 169.155 57.929L169.196 58.0318L165.34 61.0984C165.134 60.8558 164.967 60.6597 164.783 60.4442L163.437 61.5172L165.92 64.762L167.271 63.6866L166.626 62.7839C168.32 61.4308 169.985 60.0938 171.682 58.7676L172.378 59.6258L173.721 58.5533C173.628 58.4136 173.566 58.3087 173.493 58.213C172.996 57.558 172.49 56.9098 172 56.2488C171.874 56.0527 171.645 55.9517 171.419 55.9927C169.189 56.196 166.957 56.3808 164.726 56.5687C164.381 56.598 164.034 56.6126 163.69 56.6338C163.673 56.6018 163.657 56.5697 163.64 56.5378C164.944 55.5015 166.242 54.4555 167.571 53.419L168.105 54.031L169.455 52.9587C168.638 51.8914 167.84 50.8498 167.015 49.7734L165.657 50.8508C165.882 51.1628 166.067 51.4227 166.27 51.7028L161.212 55.7232L160.555 54.9091Z" fill="white"/>
<path d="M91.5501 72.3848C93.6032 73.1029 95.619 73.7768 97.6266 74.504L97.3251 75.4976L98.9502 76.0575C99.4059 74.6931 99.8478 73.3695 100.304 72.0064C99.7413 71.8122 99.2241 71.6329 98.6817 71.4452C98.5491 71.7932 98.4299 72.1057 98.3009 72.4451L92.2244 70.3374C92.658 68.9646 93.1013 67.6456 93.5655 66.3081L99.6553 68.4201C99.5484 68.7698 99.4547 69.0758 99.3468 69.4293L100.978 69.9949C101.436 68.6164 101.876 67.2926 102.325 65.939L100.7 65.3752L100.336 66.3813L94.2492 64.2693C94.3608 63.9014 94.4541 63.5944 94.5601 63.2443L92.9369 62.6875C91.809 66.0683 90.6919 69.4173 89.5623 72.8027L91.1794 73.364C91.3104 73.0189 91.4241 72.7187 91.5501 72.3848Z" fill="white"/>
<path d="M135.99 46.3986C136.74 46.4466 137.49 46.5119 138.24 46.5201C139.643 46.5453 140.87 45.5251 141.128 44.1201C141.308 43.2175 141.157 42.4101 140.439 41.7775C140.396 41.7305 140.359 41.6777 140.329 41.6205C140.561 41.4045 140.777 41.1708 140.974 40.9209C141.42 40.2586 141.447 39.5064 141.277 38.7578C140.972 37.4172 139.923 36.5384 138.502 36.4222C137.08 36.306 135.657 36.2189 134.235 36.1227C134.07 36.1114 133.905 36.121 133.716 36.121C133.632 36.6912 133.6 37.2684 133.621 37.8447L134.586 37.9786C134.452 40.1724 134.325 42.3144 134.153 44.4753H133.146C133.112 45.0513 133.08 45.6033 133.047 46.174C133.197 46.1939 133.285 46.2107 133.374 46.2172C134.246 46.2789 135.118 46.343 135.99 46.3986ZM136.724 38.0974C137.294 38.1339 137.814 38.1351 138.325 38.2083C138.956 38.2983 139.336 39.127 139.092 39.8016C138.964 40.2706 138.517 40.5792 138.043 40.5273C137.614 40.5089 137.187 40.4688 136.759 40.4359C136.693 40.4215 136.628 40.4016 136.565 40.3766C136.618 39.6154 136.669 38.8752 136.724 38.0974ZM136.452 42.2073C137.075 42.2481 137.621 42.281 138.167 42.3228C138.258 42.3343 138.347 42.3626 138.428 42.4061C138.87 42.6208 139.09 43.2103 138.962 43.8242C138.894 44.3548 138.439 44.7527 137.914 44.7407C137.426 44.7239 136.939 44.6752 136.452 44.6366C136.396 44.6193 136.343 44.5946 136.293 44.5629C136.345 43.8038 136.397 43.0348 136.452 42.2073Z" fill="white"/>
<path d="M151.723 48.5838C151.38 49.0638 151.061 49.5265 150.758 50.0296L154.203 52.4418L155.171 51.0001L154.329 50.3629L156.257 47.5053C156.318 47.7126 156.356 47.8108 156.374 47.9133C156.602 49.1572 156.815 50.4042 157.061 51.644C157.139 51.9469 157.07 52.2699 156.878 52.5133C156.593 52.8954 156.342 53.3034 156.052 53.7373L158.716 55.6016C159.081 55.0602 159.423 54.5516 159.769 54.0373C159.678 53.9497 159.579 53.8719 159.472 53.8052C159.222 53.6754 159.062 53.4164 159.053 53.1311C158.841 51.8845 158.616 50.6399 158.4 49.3938C158.385 49.2563 158.378 49.1181 158.38 48.9796C158.6 48.9436 158.779 48.9061 158.96 48.886C159.936 48.7782 160.915 48.6889 161.887 48.5649C162.397 48.4998 162.896 48.3969 163.316 48.9028L164.388 47.3092L161.648 45.3935C161.328 45.8635 161.031 46.2801 160.756 46.7114C160.648 46.8995 160.452 47.0193 160.238 47.0289C159.049 47.1592 157.863 47.3133 156.675 47.4546C156.55 47.4575 156.425 47.4518 156.301 47.4376L157.955 44.9812L158.846 45.5488L159.818 44.1088L156.354 41.6875L155.387 43.1316L156.183 43.7409C155.727 44.5943 152.786 48.8869 152.509 49.1029L151.723 48.5838Z" fill="white"/>
<path d="M96.9738 59.6598L102.087 63.282L101.519 64.1756L102.926 65.173L107.416 58.5848L104.539 56.5492L103.361 58.2788C103.854 58.6328 104.312 58.9623 104.808 59.3194C104.298 60.0666 103.812 60.7769 103.305 61.5197L101.36 60.1369L102.467 58.4663L100.976 57.4127C100.586 57.9711 100.217 58.5001 99.8283 59.0571L98.1648 57.8768C98.683 57.1122 99.1512 56.3912 99.6691 55.6871C100.087 55.9717 100.451 56.2196 100.835 56.4812L102.005 54.7511L99.2704 52.8203L94.7853 59.4049L96.3384 60.5072L96.9738 59.6598Z" fill="white"/>
<path d="M126.451 47.2649C128.16 47.2716 129.442 46.6764 130.315 45.6284C132.23 43.333 131.859 39.7225 129.516 37.8424C127.651 36.298 124.893 36.4996 123.264 38.2998C121.787 39.8838 121.477 42.4757 122.549 44.504C123.455 46.2192 124.86 47.1682 126.451 47.2649ZM124.496 40.101C124.91 39.3241 125.71 38.8386 126.578 38.8386C127.13 38.8386 127.665 39.0354 128.09 39.3949C129.344 40.5001 129.723 42.3361 129.011 43.8622C128.612 44.6952 127.779 45.2256 126.869 45.2256C126.247 45.2256 125.649 44.9775 125.204 44.5342C124.474 43.8245 124.069 42.8357 124.085 41.8083C124.071 41.2122 124.213 40.6227 124.496 40.101Z" fill="white"/>
<path d="M144.57 47.7774C146.27 49.0828 148.657 48.9923 150.258 47.5614C150.444 47.3903 150.597 47.182 150.789 46.965L149.046 45.7619C148.908 45.88 148.816 45.9626 148.72 46.0389C147.295 47.1712 145.421 46.5604 144.899 44.7942C144.729 44.2228 144.711 43.6151 144.847 43.0343C145.101 41.9289 145.665 41.0472 146.695 40.5465C147.827 39.9957 149.295 40.4313 149.733 41.5358C149.911 42.047 150.351 42.4192 150.876 42.5037C150.98 42.5289 151.079 42.5745 151.183 42.6062C151.411 42.6768 151.64 42.7447 151.899 42.8222C152.13 42.112 152.345 41.452 152.568 40.7659C152.219 40.6459 151.919 40.529 151.612 40.4393C151.344 40.3725 151.114 40.1954 150.979 39.9504C150.719 39.4853 150.335 39.1049 149.872 38.8531C148.662 38.1612 147.206 38.0674 145.92 38.5982C143.87 39.4142 142.53 41.5826 142.626 43.9144C142.691 45.503 143.306 46.8184 144.57 47.7774Z" fill="white"/>
<path d="M109.45 56.1675C111.529 55.7206 113.252 53.6137 112.978 51.1996C112.961 50.8052 112.846 50.4217 112.644 50.085L110.776 50.978C110.805 51.146 110.823 51.2533 110.84 51.3606C110.869 51.5108 110.883 51.6632 110.883 51.8163C110.883 53.1227 109.828 54.1978 108.546 54.1978C108.414 54.1978 108.282 54.1863 108.151 54.1635C106.52 53.9386 105.143 52.3105 105.16 50.632C105.175 49.1476 106.404 47.944 107.857 48.225C108.152 48.298 108.465 48.2003 108.669 47.9706C108.936 47.7136 109.227 47.482 109.503 47.2343C109.591 47.1551 109.666 47.0606 109.76 46.959L108.38 45.3359C108.072 45.6021 107.801 45.8284 107.54 46.0665C107.394 46.2038 107.203 46.2808 107.004 46.2825C106.496 46.2748 105.993 46.3912 105.538 46.6218C104.715 47.0584 104.045 47.7455 103.622 48.5874C102.704 50.4976 102.912 52.3434 104.133 54.0193C105.449 55.8269 107.239 56.6422 109.45 56.1675Z" fill="white"/>
<path d="M113.567 44.6752L113.032 43.4822L114.173 42.9173C115.129 44.921 116.063 46.8803 117.01 48.8656L116.098 49.365C116.364 49.9036 116.586 50.4239 116.867 50.9238C117.543 50.5878 118.166 50.2869 118.782 49.9722C119.391 49.6614 120.027 49.4003 120.62 49.0312L119.869 47.4832L118.918 47.9284L116.073 41.9647L117.37 41.3383L117.954 42.5004L119.815 41.5733L118.518 38.8594L110.418 42.8781L111.717 45.5918L113.567 44.6752Z" fill="white"/>
<path d="M140.318 127.171L141.323 127.091V125.557C141.141 125.557 141.021 125.552 140.901 125.557C140.258 125.584 139.615 125.631 138.972 125.635C138.711 125.621 138.463 125.756 138.33 125.985C137.742 126.863 137.134 127.726 136.531 128.593C136.456 128.7 136.365 128.797 136.265 128.918C136.167 128.811 136.102 128.746 136.043 128.675C135.338 127.83 134.63 126.987 133.933 126.134C133.817 125.969 133.623 125.878 133.424 125.898C132.95 125.926 132.474 125.924 131.999 125.947C131.685 125.963 131.372 126 131.063 126.027C131.063 126.339 131.052 126.588 131.066 126.837C131.079 127.078 131.118 127.318 131.146 127.559H132.103C132.142 128.546 132.18 129.503 132.219 130.478L131.219 130.565C131.246 131.094 131.271 131.582 131.298 132.111L134.679 131.956V130.442L133.981 130.379C133.95 129.777 133.921 129.199 133.892 128.622L134.003 128.579L136.382 131.338C136.767 130.801 137.116 130.312 137.468 129.824C137.815 129.342 138.144 128.844 138.514 128.38L138.616 128.421C138.641 129.005 138.666 129.588 138.692 130.186L138.044 130.269C138.073 130.782 138.101 131.272 138.132 131.807L141.5 131.65V130.086H140.44C140.399 129.099 140.359 128.154 140.318 127.171Z" fill="white"/>
<path d="M144.288 124.777C144.217 124.845 144.139 124.905 144.034 124.995C143.894 124.571 144 124.102 144.309 123.784C144.649 123.419 145.076 123.151 145.549 123.007C146.058 122.836 146.573 122.682 147.084 122.517C147.283 122.453 147.479 122.379 147.691 122.304C147.525 121.707 147.371 121.154 147.196 120.531C146.715 120.667 146.289 120.785 145.864 120.91C145.808 120.925 145.759 120.961 145.729 121.012C145.777 121.352 145.49 121.334 145.314 121.401C144.732 121.6 144.184 121.89 143.689 122.262C142.694 123.063 142.207 124.107 142.454 125.389C142.665 126.412 142.932 127.421 143.253 128.413C143.385 128.796 143.589 129.149 143.856 129.45C145.107 130.923 147.254 130.587 148.37 129.551C149.419 128.576 149.663 127.096 149.014 125.681C148.553 124.603 147.504 123.902 146.35 123.902C145.576 123.902 144.833 124.218 144.288 124.777ZM146.26 128.828C145.412 128.851 144.644 128.049 144.639 127.136C144.648 126.274 145.332 125.564 146.177 125.54C147.005 125.538 147.652 126.3 147.66 127.288C147.661 127.31 147.662 127.333 147.662 127.356C147.662 128.147 147.036 128.805 146.259 128.828L146.26 128.828Z" fill="white"/>
<path d="M165.354 117.71L163.502 115.46L164.125 114.86L163.154 113.688L160.519 115.95L161.493 117.126L162.16 116.606L162.646 117.202L160.631 118.93C160.46 118.714 160.312 118.527 160.137 118.306L160.747 117.776C160.408 117.364 160.099 116.988 159.771 116.589L157.133 118.851C157.471 119.262 157.782 119.639 158.104 120.029L158.812 119.481L160.669 121.736L160.02 122.352C160.356 122.76 160.66 123.127 160.989 123.527L163.627 121.264C163.282 120.847 162.971 120.472 162.652 120.085C162.414 120.272 162.225 120.421 162.003 120.595L161.386 119.834L163.405 118.105L164.015 118.868L163.406 119.447L164.378 120.623L167.009 118.36L166.044 117.186L165.354 117.71Z" fill="white"/>
<path d="M157.602 123.823C157.16 122.95 156.728 122.098 156.291 121.235L156.9 120.848L156.197 119.484C155.615 119.791 155.08 120.092 154.528 120.354C154.272 120.46 154.093 120.701 154.065 120.981C153.835 122.303 153.583 123.621 153.336 124.94C153.302 125.071 153.26 125.199 153.211 125.326L152.221 123.373L152.824 122.982C152.593 122.528 152.372 122.094 152.134 121.625C151.166 122.137 150.246 122.623 149.289 123.129L149.983 124.487L150.674 124.19L151.993 126.79L151.372 127.186C151.597 127.669 151.815 128.106 152.069 128.539C152.65 128.233 153.172 127.933 153.715 127.683C154 127.566 154.198 127.297 154.228 126.985C154.461 125.696 154.716 124.411 154.967 123.124C155.002 123.001 155.046 122.88 155.097 122.762C155.446 123.442 155.771 124.03 156.045 124.651L155.419 125.048L156.115 126.408L158.959 124.898C158.708 124.413 158.489 123.988 158.264 123.554L157.602 123.823Z" fill="white"/>
<path d="M98.9951 107.434L100.321 106.747C99.2786 104.654 98.2619 102.612 97.2371 100.555C96.7788 100.762 96.3325 100.995 95.9006 101.254C96.0303 101.542 96.1361 101.778 96.2618 102.056C95.7743 102.281 95.3384 102.509 94.8829 102.685C94.1132 102.983 93.5117 102.779 93.0345 102.099C92.9389 101.963 92.8506 101.823 92.7392 101.654L91.4139 102.353C91.5846 102.691 91.7179 102.972 91.8654 103.245C92.3602 104.261 93.481 104.805 94.567 104.557C95.2755 104.417 95.9601 104.173 96.6001 103.833C96.7444 103.761 96.8947 103.702 97.0619 103.628C97.3193 104.144 97.5702 104.601 97.7826 105.11L95.1829 106.452L94.7774 105.681C94.0272 105.975 93.6452 106.201 93.461 106.46L95.0817 109.72C95.5482 109.521 96.0002 109.288 96.4343 109.024L95.9853 108.039C96.8704 107.578 97.7047 107.132 98.5721 106.713L98.9951 107.434Z" fill="white"/>
<path d="M120.016 124.508C119.835 124.977 119.377 125.106 119.014 125.35C118.955 125.366 118.893 125.358 118.839 125.329C118.67 125.265 118.505 125.191 118.307 125.107C118.603 124.318 118.885 123.564 119.184 122.768L116.699 121.781C116.511 122.285 116.339 122.743 116.159 123.221C116.335 123.298 116.46 123.352 116.583 123.408C116.717 123.47 116.85 123.535 117.01 123.611C116.654 124.54 116.316 125.422 115.96 126.352L115.076 126.035L114.527 127.478L117.593 128.693L118.137 127.265L117.589 126.977C117.687 126.736 117.778 126.512 117.864 126.301C118.24 126.297 118.568 126.572 118.636 126.949C118.854 127.681 119.115 128.4 119.372 129.119C119.41 129.265 119.498 129.393 119.618 129.481C120.045 129.682 120.49 129.841 120.963 130.029L121.513 128.583C121.299 128.496 121.125 128.437 120.964 128.355C120.851 128.312 120.754 128.235 120.686 128.135C120.446 127.583 120.229 127.021 119.993 126.431C120.546 126.106 121.044 125.8 121.556 125.524C121.684 125.486 121.82 125.493 121.944 125.541C122.158 125.599 122.365 125.685 122.6 125.769C122.788 125.271 122.958 124.826 123.143 124.338L120.491 123.286C120.32 123.726 120.166 124.118 120.016 124.508Z" fill="white"/>
<path d="M179.257 88.5034C178.858 88.4861 178.459 88.4988 178.06 88.4976C177.39 88.495 177.287 88.4165 177.08 87.7558C176.987 87.4579 176.894 87.1603 176.8 86.863C176.776 86.7888 176.751 86.7151 176.724 86.6419C176.651 86.4099 176.436 86.2527 176.197 86.2579C175.958 86.2541 175.744 86.4161 175.678 86.6513C175.536 87.0639 175.41 87.4827 175.271 87.8964C175.106 88.393 174.976 88.4909 174.473 88.4964C174.044 88.5019 173.614 88.4899 173.184 88.5017C172.914 88.4686 172.657 88.6387 172.577 88.9037C172.497 89.1624 172.573 89.3717 172.844 89.5884C173.182 89.8586 173.527 90.1178 173.868 90.3861C174.287 90.7166 174.343 90.8834 174.194 91.3941C174.067 91.8283 173.918 92.256 173.797 92.6918C173.686 92.9462 173.776 93.2479 174.007 93.3964C174.217 93.5431 174.502 93.5198 174.687 93.341C174.946 93.1466 175.208 92.9556 175.468 92.7614C176.162 92.243 176.237 92.2413 176.919 92.7396C177.181 92.9316 177.439 93.1276 177.706 93.312C177.988 93.5075 178.212 93.5148 178.428 93.3525C178.644 93.1903 178.691 92.9803 178.597 92.6344C178.576 92.5591 178.551 92.4849 178.528 92.4108C178.42 92.0688 178.305 91.7287 178.204 91.3845C178.065 90.9132 178.128 90.7181 178.513 90.4094C178.863 90.1296 179.219 89.8574 179.573 89.5829C179.733 89.4871 179.839 89.3186 179.856 89.1305C179.857 89.1146 179.858 89.0988 179.858 89.083C179.858 88.7645 179.601 88.5024 179.288 88.5024C179.278 88.5024 179.267 88.5029 179.257 88.5034Z" fill="white"/>
<path d="M93.0624 92.5707C93.3922 92.7982 93.7101 93.0438 94.037 93.2758C94.3858 93.5233 94.6053 93.5463 94.8322 93.3632C95.1122 93.1374 95.071 92.853 94.9735 92.5542C94.8519 92.1841 94.7379 91.8116 94.6258 91.4382C94.4643 90.8994 94.5168 90.7348 94.953 90.3932C95.3063 90.1172 95.6671 89.8532 96.0116 89.5672C96.3414 89.2931 96.3765 88.9235 96.0823 88.6907C95.933 88.587 95.758 88.5287 95.5773 88.5227C95.1647 88.4987 94.7497 88.5181 94.3359 88.5131C93.8272 88.5069 93.7024 88.4133 93.5373 87.9153C93.3999 87.5013 93.2739 87.0834 93.135 86.6704C93.065 86.4352 92.8507 86.2734 92.6095 86.2734C92.3761 86.2734 92.167 86.4254 92.0907 86.6502C92.0523 86.752 92.02 86.8562 91.9859 86.9598C91.8709 87.3157 91.7572 87.6719 91.6415 88.0276C91.5699 88.3278 91.2944 88.5342 90.9917 88.5138C90.7619 88.5119 90.5318 88.5138 90.3019 88.5138V88.5162H89.6121C89.3436 88.4884 89.0876 88.6456 88.9858 88.9002C88.8838 89.1563 88.9724 89.3802 89.2684 89.6202C89.5934 89.8808 89.9279 90.1314 90.2553 90.3882C90.7126 90.7446 90.76 90.8999 90.5838 91.4732C90.4602 91.8755 90.3167 92.2722 90.2159 92.6802C90.1686 92.8566 90.1759 93.0435 90.2369 93.2156C90.373 93.5324 90.7357 93.5982 91.056 93.379C91.4251 93.127 91.7753 92.847 92.1394 92.587C92.3938 92.337 92.7996 92.3298 93.0624 92.5707Z" fill="white"/>
<path d="M174.042 105.659C173.148 105.184 172.283 104.735 171.427 104.213L171.922 103.313L172.947 103.821L173.746 102.292L171.436 101.031L168.014 107.535C168.804 107.967 169.545 108.39 170.331 108.791L171.127 107.27L170.128 106.695L170.605 105.807C171.496 106.295 172.363 106.741 173.206 107.245C173.058 107.559 172.935 107.821 172.803 108.101L174.131 108.824L175.894 105.477L174.56 104.753C174.377 105.073 174.218 105.351 174.042 105.659Z" fill="white"/>
<path d="M170.635 111.447C170.397 111.26 170.193 111.1 169.989 110.939C169.516 110.566 169.062 110.166 168.567 109.825C167.701 109.23 166.877 109.286 166.067 109.959C165.503 110.424 165.067 111.031 164.803 111.719C164.599 112.187 164.493 112.692 164.49 113.204L165.617 113.45C165.675 113.264 165.714 113.131 165.758 113.001C165.946 112.384 166.303 111.836 166.788 111.421C167.226 111.065 167.591 111.109 167.997 111.529C167.776 111.771 167.575 111.985 167.379 112.204C166.95 112.634 166.637 113.169 166.47 113.757C166.276 114.421 166.492 115.142 167.017 115.581C167.515 116.08 168.268 116.211 168.9 115.909C169.23 115.746 169.532 115.531 169.795 115.271C170.232 114.859 170.497 114.291 170.534 113.685C170.669 113.687 170.802 113.656 170.922 113.595C171.402 113.012 171.86 112.41 172.345 111.788L171.161 110.826L170.635 111.447ZM169.327 113.655C169.219 113.877 169.078 114.08 168.908 114.257C168.788 114.402 168.611 114.486 168.426 114.486C168.08 114.486 167.795 114.195 167.795 113.843C167.795 113.71 167.835 113.581 167.91 113.472C167.996 113.327 168.095 113.188 168.204 113.059C168.402 112.803 168.605 112.551 168.807 112.299C168.841 112.274 168.878 112.255 168.917 112.242C169.614 112.715 169.679 112.917 169.326 113.655L169.327 113.655Z" fill="white"/>
<path d="M99.4642 111.287L102.213 114.828C102.693 114.482 103.107 114.049 103.432 113.55C103.696 113.144 103.847 112.674 103.871 112.187C103.897 110.903 103.292 109.959 102.249 109.337C100.212 108.122 97.9665 109.677 97.5343 111.503C97.4535 111.836 97.43 112.18 97.4649 112.522C97.6337 113.99 98.8617 115.368 100.341 115.76L100.836 114.606C100.673 114.492 100.528 114.406 100.401 114.298C100.097 114.038 99.7861 113.783 99.5063 113.497C99.2197 113.207 99.0447 112.821 99.0136 112.411C98.9343 111.979 99.1109 111.538 99.4642 111.287ZM102.061 110.995C102.509 111.571 102.496 112.072 101.977 112.616L100.429 110.616C101.022 110.253 101.601 110.402 102.061 110.995Z" fill="white"/>
<path d="M126.324 124.844C126.322 124.844 126.319 124.844 126.317 124.844C124.593 124.844 123.174 126.289 123.174 128.047C123.174 128.069 123.174 128.092 123.175 128.115C123.175 129.816 124.374 131.292 126.442 131.307C128.558 131.322 129.565 129.555 129.564 128.073C129.577 126.261 128.173 124.861 126.324 124.844ZM126.363 129.698C126.352 129.698 126.341 129.698 126.331 129.698C125.522 129.698 124.857 129.02 124.857 128.197C124.857 128.181 124.858 128.165 124.858 128.149C124.851 127.17 125.499 126.442 126.375 126.447C126.404 126.445 126.432 126.444 126.461 126.444C127.235 126.444 127.872 127.093 127.872 127.883C127.872 127.916 127.871 127.95 127.869 127.983C127.858 129.131 127.062 129.759 126.363 129.698V129.698Z" fill="white"/>
<path d="M111.624 118.954C110.013 118.916 108.445 120.301 108.418 122.261C108.395 123.964 109.954 125.459 111.697 125.47C113.389 125.48 114.829 123.984 114.838 122.206C114.846 120.452 113.386 118.996 111.624 118.954ZM111.568 123.835C110.764 123.832 110.104 123.157 110.104 122.337C110.104 122.325 110.104 122.313 110.104 122.301C110.104 121.378 110.84 120.573 111.687 120.565C112.5 120.565 113.174 121.238 113.189 122.067C113.184 122.991 112.415 123.83 111.568 123.835V123.835Z" fill="white"/>
<path d="M109.718 117.786C109.595 117.639 109.463 117.5 109.322 117.371C109.054 117.162 108.854 116.876 108.747 116.55C108.549 116.039 108.218 115.592 107.79 115.257C106.821 114.424 105.738 114.207 104.578 114.723C103.417 115.191 102.635 116.323 102.597 117.595C102.475 119.6 104.37 121.31 106.324 121C106.682 120.977 107.024 120.835 107.296 120.595C107.157 120.372 107.027 120.162 106.895 119.953C106.756 119.732 106.615 119.512 106.49 119.316C106.206 119.368 105.917 119.396 105.628 119.4C104.846 119.347 104.231 118.677 104.231 117.879C104.231 117.817 104.235 117.754 104.242 117.692C104.352 116.786 105.204 116.075 106.044 116.189C106.777 116.307 107.352 116.905 107.452 117.655C107.456 117.806 107.501 117.953 107.584 118.078C107.905 118.407 108.258 118.705 108.62 119.033L109.718 117.786Z" fill="white"/>
<path d="M180.461 67.886C180.284 67.8426 180.118 67.7578 179.978 67.6383C179.41 67.1221 179.321 66.2389 179.775 65.6161C179.82 65.5554 179.86 65.4913 179.901 65.4306L179.397 63.9688C178.701 64.5042 178.227 65.1049 178.178 65.9636C178.117 66.9087 178.418 67.8418 179.017 68.5661C179.572 69.2578 180.319 69.4983 181.253 69.4301C181.106 68.9936 180.966 68.6319 180.865 68.2597C180.824 68.06 180.66 67.909 180.461 67.886Z" fill="white"/>
<path d="M141.692 86.8178C141.131 86.4991 140.552 86.2118 139.96 85.9569C139.67 85.824 139.36 85.7388 139.029 85.6209C139.047 85.294 139.071 84.984 139.081 84.6737C139.103 84.0307 138.811 83.7259 138.185 83.6853C137.803 83.6688 137.423 83.6191 137.049 83.5363C135.347 83.1201 133.94 82.1587 132.641 81.0096C132.418 80.8123 132.4 80.6535 132.574 80.3475C132.929 79.7268 133.266 79.0908 133.671 78.5055C135.084 76.5137 136.72 74.696 138.545 73.0895C139.707 72.0419 140.91 71.0456 142.313 70.3374C142.422 70.28 142.522 70.2056 142.608 70.1168C143.229 69.4897 143.856 68.8665 144.462 68.2245C144.717 67.9813 144.863 67.6408 144.863 67.2846C144.863 66.9558 144.739 66.6393 144.517 66.4005C143.838 65.6565 143.131 64.9365 142.404 64.2422C141.903 63.7533 141.098 63.7646 140.61 64.2676C140.496 64.3718 140.39 64.4865 140.282 64.5969C136.561 68.3908 132.839 72.1854 129.118 75.9805C128.948 76.2032 128.695 76.3443 128.419 76.3695C128.031 76.3969 127.668 76.5778 127.409 76.8735C126.313 77.9907 125.209 79.1002 124.123 80.227C123.785 80.551 123.594 81.0034 123.594 81.4762C123.594 81.9422 123.78 82.3889 124.11 82.7122C124.81 83.4578 125.535 84.1795 126.256 84.9043C126.595 85.2823 127.097 85.4654 127.595 85.3929C128.041 85.3173 128.244 85.5206 128.417 85.8991C128.252 85.9732 128.1 86.0431 127.947 86.1086C127.23 86.3911 126.562 86.788 125.969 87.2846C125.227 87.8913 124.803 88.8155 124.821 89.7842C124.832 94.8203 124.826 99.8561 124.828 104.892C124.824 105.064 124.84 105.236 124.875 105.404C124.964 105.753 125.275 105.998 125.629 105.998C125.857 105.998 126.074 105.896 126.222 105.719C126.373 105.539 126.448 105.305 126.43 105.068C126.427 104.302 126.427 103.536 126.43 102.769C126.43 102.638 126.452 102.505 126.467 102.337C126.566 102.373 126.664 102.414 126.759 102.46C127.81 103.013 128.933 103.41 130.094 103.639C130.214 103.667 130.336 103.683 130.459 103.685C130.465 103.686 130.472 103.686 130.479 103.686C130.909 103.686 131.264 103.324 131.264 102.885C131.264 102.552 131.06 102.253 130.753 102.136C130.583 102.07 130.394 102.053 130.22 101.996C129.447 101.744 128.665 101.514 127.91 101.216C127.546 101.05 127.207 100.834 126.901 100.573C126.575 100.326 126.394 99.9243 126.423 99.5105C126.443 98.7603 126.427 98.0094 126.431 97.2584C126.439 97.1367 126.456 97.0155 126.48 96.896C126.965 97.1382 127.394 97.3813 127.844 97.5714C129.846 98.4173 131.948 98.707 134.099 98.707C134.161 98.7087 134.222 98.7049 134.283 98.6955C134.578 98.6497 134.822 98.4337 134.909 98.1418C135.002 97.8692 134.934 97.5651 134.734 97.3606C134.563 97.1775 134.322 97.0794 134.075 97.0921C133.309 97.0484 132.542 97.0136 131.78 96.9313C130.618 96.8134 129.479 96.5202 128.402 96.0611C127.873 95.846 127.384 95.5419 126.955 95.1615C126.688 94.9674 126.508 94.6724 126.455 94.3429C126.421 93.6491 126.444 92.9521 126.444 92.1829C126.845 92.3956 127.171 92.5885 127.514 92.7474C127.862 92.9092 128.221 93.0486 128.583 93.1772C128.93 93.3006 129.283 93.4105 129.64 93.502C130.011 93.598 130.389 93.6712 130.766 93.7386C131.143 93.806 131.523 93.8632 131.904 93.9066C132.284 93.95 132.667 93.9812 133.05 94.0014C133.417 94.0211 133.786 94.0254 134.154 94.0254C134.538 94.0254 134.922 94.0206 135.305 94.0014C135.688 93.9822 136.07 93.9498 136.451 93.9054C136.832 93.861 137.211 93.8008 137.587 93.7314C137.964 93.662 138.341 93.5848 138.712 93.489C139.068 93.3973 139.422 93.2912 139.769 93.1664C140.13 93.0368 140.486 92.8888 140.834 92.727C141.172 92.57 141.498 92.3855 141.837 92.2089C141.857 92.259 141.872 92.3109 141.882 92.3636C141.886 93.8024 141.888 95.2412 141.889 96.68C141.891 96.998 141.764 97.3035 141.538 97.5224C141.31 97.7533 141.06 97.9616 140.793 98.1442C140.193 98.5239 139.541 98.8117 138.858 98.9984C138.564 99.0865 138.265 99.1568 137.971 99.2446C137.662 99.3149 137.428 99.5775 137.388 99.8979C137.38 99.944 137.376 99.9908 137.376 100.038C137.376 100.477 137.731 100.839 138.163 100.839C138.243 100.839 138.323 100.826 138.4 100.802C139.483 100.572 140.526 100.173 141.489 99.6181C141.598 99.5535 141.716 99.505 141.891 99.4189V104.847C141.886 105.003 141.891 105.159 141.906 105.315C141.959 105.708 142.292 106.004 142.682 106.004C143.075 106.004 143.411 105.701 143.459 105.303C143.474 105.132 143.478 104.96 143.472 104.788V94.0434C143.472 92.5732 143.462 91.1032 143.476 89.633C143.494 88.9043 143.219 88.199 142.714 87.6827C142.412 87.3499 142.069 87.059 141.692 86.8178ZM137.387 85.2794C137.397 85.402 137.396 85.5252 137.384 85.6476C137.16 86.8696 136.563 87.9892 135.679 88.8465C135.5 89.0402 135.247 89.1453 134.986 89.1345C134.038 89.1174 133.089 89.128 132.094 89.128C131.49 87.3691 130.543 85.7522 129.312 84.3741L131.488 82.1606C133.183 83.6445 135.063 84.8702 137.387 85.2794ZM141.625 65.7043C141.995 66.0868 142.404 66.5087 142.812 66.9318C142.908 67.0314 142.999 67.1351 143.114 67.2604C143.033 67.3624 142.966 67.461 142.885 67.547C142.186 68.3332 141.375 69.009 140.48 69.5521C139.263 70.256 138.209 71.2043 137.175 72.1623C135.456 73.7257 133.898 75.4626 132.524 77.3463C132.227 77.7605 131.951 78.1906 131.69 78.577C131.217 78.097 130.755 77.629 130.336 77.2054L141.625 65.7043ZM127.423 83.8001C126.676 83.0501 125.923 82.2881 125.224 81.552C126.401 80.3532 127.534 79.1986 128.684 78.0284C129.476 78.7136 130.214 79.4621 130.889 80.2668C130.718 80.5819 127.846 83.5269 127.423 83.801V83.8001ZM141.703 90.052C141.477 90.3458 141.211 90.6052 140.913 90.8226C140.144 91.3439 139.285 91.7092 138.38 91.899C135.208 92.6502 132.056 92.6262 128.94 91.5909C128.294 91.3864 127.688 91.0672 127.15 90.6479C126.21 89.8958 126.197 89.1906 127.122 88.4361C127.783 87.9239 128.538 87.551 129.342 87.3388C129.398 87.3335 129.455 87.3359 129.51 87.3463C129.86 87.8795 130.142 88.4555 130.35 89.0606C130.201 89.1006 130.086 89.1237 129.975 89.1626C129.631 89.2814 129.403 89.6207 129.419 89.9913C129.456 90.3782 129.759 90.6875 130.138 90.7264C130.276 90.7381 130.414 90.7417 130.552 90.7377H137.779C137.917 90.7422 138.055 90.7379 138.193 90.7252C138.585 90.676 138.883 90.3328 138.883 89.9303C138.883 89.523 138.578 89.1774 138.181 89.134C138.02 89.1146 137.857 89.11 137.659 89.0963L138.658 87.2303C139.647 87.5299 140.605 87.8865 141.388 88.6077C141.511 88.7243 141.621 88.8566 141.712 89.001C141.948 89.3102 141.945 89.7479 141.703 90.053V90.052Z" fill="white"/>
<path d="M144.504 83.4763C144.094 83.4335 143.68 83.435 143.27 83.4811C142.873 83.5303 142.574 83.8818 142.582 84.2891C142.603 84.7122 142.938 85.0547 143.353 85.077C143.536 85.0922 143.72 85.0797 143.904 85.0797C144.073 85.0797 144.242 85.0886 144.41 85.078C144.823 85.0686 145.168 84.7384 145.202 84.3182C145.231 83.8941 144.919 83.518 144.504 83.4763Z" fill="white"/>
<path d="M138.562 77.4638C138.144 77.4271 137.772 77.7461 137.735 78.1711C137.69 78.5733 137.687 78.9796 137.728 79.3824C137.754 79.7942 138.094 80.1187 138.499 80.1187C138.526 80.1187 138.553 80.1172 138.579 80.1143C138.993 80.0779 139.313 79.7191 139.31 79.2962C139.319 79.1251 139.311 78.9532 139.311 78.7816C139.311 78.61 139.32 78.438 139.309 78.2671C139.301 77.8452 138.975 77.4948 138.562 77.4638Z" fill="white"/>
<path d="M142.625 79.2193C142.529 79.2277 142.435 79.2579 142.352 79.3078C141.963 79.6541 141.598 80.0276 141.26 80.4252C141.042 80.7003 141.155 81.1126 141.411 81.3593C141.662 81.6341 142.082 81.6708 142.376 81.4436C142.717 81.1539 143.033 80.8356 143.321 80.4917C143.515 80.2556 143.535 79.9148 143.369 79.6565C143.224 79.3784 142.934 79.2082 142.625 79.2193Z" fill="white"/>
<path d="M162.662 84.5312C162.661 84.5312 162.661 84.5312 162.66 84.5312C162.441 84.5312 162.262 84.7144 162.262 84.9371C162.262 84.957 162.263 84.9767 162.266 84.9964C162.266 84.9973 162.266 84.9985 162.266 84.9995C162.266 85.2169 162.441 85.3955 162.655 85.3955C162.663 85.3955 162.671 85.3952 162.68 85.3948C162.891 85.3811 163.058 85.2001 163.058 84.9844C163.058 84.9743 163.057 84.964 163.056 84.9536C163.057 84.9484 163.057 84.9431 163.057 84.9378C163.057 84.7165 162.879 84.5336 162.662 84.5312Z" fill="white"/>
<path d="M106.463 81.0411C106.683 81.0411 106.867 80.8599 106.874 80.6351C106.851 80.4303 106.692 80.2669 106.492 80.2422C106.491 80.2422 106.49 80.2422 106.49 80.2422C106.269 80.2422 106.088 80.427 106.088 80.6516V80.6519C106.096 80.8597 106.259 81.0294 106.463 81.0411Z" fill="white"/>
<path d="M115.646 106.125C115.426 106.125 115.243 106.304 115.235 106.528C115.258 106.732 115.415 106.896 115.615 106.924C115.835 106.922 116.016 106.737 116.017 106.513C116.015 106.305 115.85 106.133 115.646 106.125Z" fill="white"/>
<path d="M106.878 89.4274C106.871 89.2123 106.696 89.0391 106.485 89.0391C106.269 89.0391 106.092 89.2198 106.092 89.4394C106.092 89.4435 106.092 89.4473 106.092 89.4514C106.099 89.6664 106.274 89.8397 106.485 89.8397C106.701 89.8397 106.878 89.659 106.878 89.4394C106.878 89.4353 106.878 89.4315 106.878 89.4274Z" fill="white"/>
<path d="M154.768 104.562C154.55 104.579 154.377 104.764 154.371 104.988C154.389 105.196 154.561 105.357 154.766 105.358C154.971 105.361 155.144 105.197 155.156 104.989C155.164 104.764 154.989 104.572 154.768 104.562Z" fill="white"/>
<path d="M156.217 102.922C156.013 102.916 155.837 103.075 155.819 103.282C155.808 103.506 155.976 103.701 156.196 103.718C156.398 103.709 156.568 103.555 156.601 103.351C156.607 103.127 156.436 102.936 156.217 102.922Z" fill="white"/>
<path d="M119.013 61.2547C119.216 61.2415 119.38 61.0774 119.398 60.8707C119.392 60.6468 119.216 60.4632 118.996 60.4531C118.794 60.4687 118.631 60.6343 118.615 60.8407C118.615 60.8446 118.615 60.8482 118.615 60.852C118.615 61.073 118.794 61.2547 119.01 61.2547C119.011 61.2547 119.012 61.2547 119.013 61.2547Z" fill="white"/>
<path d="M122.834 110.915C122.63 110.931 122.473 111.11 122.481 111.319C122.493 111.525 122.656 111.693 122.859 111.708C123.077 111.697 123.254 111.516 123.264 111.293C123.245 111.07 123.053 110.901 122.834 110.915Z" fill="white"/>
<path d="M147.9 109.906C147.692 109.916 147.525 110.093 147.525 110.306C147.525 110.513 147.682 110.687 147.884 110.705C148.105 110.714 148.295 110.54 148.31 110.315C148.3 110.092 148.12 109.912 147.9 109.906Z" fill="white"/>
<path d="M129.069 112.883C128.865 112.872 128.684 113.025 128.658 113.232C128.655 113.249 128.654 113.266 128.654 113.283C128.654 113.503 128.832 113.684 129.047 113.684C129.263 113.684 129.44 113.503 129.44 113.283C129.44 113.072 129.276 112.895 129.069 112.883Z" fill="white"/>
<path d="M124.808 58.3248C125.008 58.2996 125.168 58.1405 125.198 57.9372C125.196 57.7126 125.017 57.5278 124.796 57.5234C124.586 57.5268 124.414 57.7042 124.414 57.919C124.414 57.9288 124.415 57.9384 124.415 57.9482C124.439 58.1534 124.605 58.3133 124.808 58.3248Z" fill="white"/>
<path d="M135.409 56.6276C135.629 56.6254 135.809 56.4404 135.809 56.216C135.803 56.0012 135.628 55.8281 135.417 55.8281C135.408 55.8281 135.399 55.8284 135.39 55.8291C135.189 55.855 135.034 56.0276 135.027 56.2342C135.049 56.4389 135.208 56.6026 135.409 56.6276Z" fill="white"/>
<path d="M109.113 97.4063C108.891 97.4025 108.703 97.5808 108.691 97.8066C108.704 98.0152 108.865 98.1853 109.068 98.2074C109.073 98.2077 109.078 98.2077 109.082 98.2077C109.298 98.2077 109.476 98.0265 109.476 97.8064C109.476 97.5978 109.316 97.4224 109.113 97.4063Z" fill="white"/>
<path d="M135.511 113.367C135.308 113.379 135.14 113.539 135.115 113.745C135.112 113.97 135.288 114.158 135.508 114.166C135.712 114.166 135.884 114.004 135.9 113.796C135.904 113.571 135.731 113.381 135.511 113.367Z" fill="white"/>
<path d="M139.741 57.1221C139.944 57.1027 140.105 56.9338 140.118 56.7264C140.111 56.5006 139.926 56.3194 139.704 56.3203C139.5 56.3362 139.339 56.5087 139.334 56.7173C139.334 56.718 139.334 56.7185 139.334 56.7192C139.334 56.9402 139.513 57.1224 139.73 57.1224C139.733 57.1224 139.737 57.1221 139.741 57.1221Z" fill="white"/>
<path d="M160.633 95.375C160.413 95.3805 160.235 95.566 160.234 95.7902C160.236 95.9988 160.401 96.1708 160.606 96.1771C160.826 96.1785 161.009 95.9968 161.014 95.7722C160.991 95.5677 160.834 95.4038 160.633 95.375Z" fill="white"/>
<path d="M162.18 82.7015C162.184 82.9103 162.347 83.0831 162.551 83.0965C162.772 83.0987 162.958 82.9211 162.969 82.6965C162.956 82.4891 162.797 82.3197 162.594 82.2969C162.373 82.2969 162.189 82.4766 162.18 82.7015Z" fill="white"/>
<path d="M149.838 108.779C149.817 108.775 149.795 108.773 149.773 108.773C149.557 108.773 149.379 108.955 149.379 109.175C149.379 109.37 149.519 109.539 149.708 109.571C149.729 109.575 149.751 109.576 149.773 109.576C149.989 109.576 150.167 109.395 150.167 109.175C150.167 108.98 150.027 108.811 149.838 108.779Z" fill="white"/>
<path d="M162.575 86.8047C162.372 86.8184 162.207 86.9784 162.182 87.1836C162.182 87.1906 162.182 87.1978 162.182 87.2048C162.182 87.4241 162.359 87.6048 162.574 87.6048C162.79 87.6048 162.967 87.4241 162.967 87.2048C162.967 86.9856 162.79 86.8052 162.575 86.8047Z" fill="white"/>
<path d="M157.522 101.164C157.521 101.164 157.52 101.164 157.519 101.164C157.303 101.164 157.125 101.345 157.125 101.566C157.125 101.785 157.301 101.965 157.516 101.967C157.72 101.96 157.89 101.799 157.911 101.593C157.914 101.369 157.741 101.179 157.522 101.164Z" fill="white"/>
<path d="M120.924 109.914C120.718 109.925 120.55 110.096 120.539 110.306C120.534 110.518 120.697 110.698 120.904 110.711C120.908 110.711 120.912 110.711 120.915 110.711C121.136 110.711 121.318 110.528 121.321 110.303C121.296 110.095 121.129 109.932 120.924 109.914Z" fill="white"/>
<path d="M143.975 111.703C143.772 111.715 143.605 111.874 143.58 112.08C143.58 112.084 143.58 112.088 143.58 112.092C143.58 112.312 143.758 112.493 143.974 112.493C144.175 112.493 144.345 112.336 144.365 112.132C144.365 111.908 144.194 111.72 143.975 111.703Z" fill="white"/>
<path d="M139.81 112.883C139.808 112.883 139.806 112.883 139.804 112.883C139.591 112.883 139.416 113.061 139.416 113.278C139.416 113.284 139.416 113.289 139.416 113.295C139.431 113.501 139.594 113.667 139.796 113.681C140.015 113.669 140.19 113.485 140.197 113.262C140.18 113.055 140.013 112.892 139.81 112.883Z" fill="white"/>
<path d="M128.973 57.1205C129.178 57.1176 129.347 56.9529 129.36 56.7451C129.361 56.5198 129.185 56.3311 128.964 56.3203C128.762 56.3383 128.598 56.5003 128.574 56.7062C128.574 56.7084 128.574 56.7103 128.574 56.7125C128.574 56.9357 128.754 57.1197 128.973 57.1205Z" fill="white"/>
<path d="M145.898 59.0905C146.118 59.0833 146.295 58.8976 146.297 58.6732C146.292 58.4567 146.116 58.2812 145.903 58.2812C145.688 58.2812 145.51 58.4622 145.51 58.6823C145.51 58.6909 145.51 58.6998 145.511 58.7084C145.528 58.9156 145.694 59.0795 145.898 59.0905Z" fill="white"/>
<path d="M120.82 60.1015C120.831 60.1024 120.842 60.1029 120.853 60.1029C121.063 60.1029 121.238 59.9356 121.253 59.7228C121.253 59.7168 121.253 59.7108 121.253 59.7045C121.253 59.4852 121.076 59.3047 120.861 59.3047C120.652 59.3047 120.478 59.4741 120.469 59.6865C120.466 59.8946 120.618 60.0736 120.82 60.1015Z" fill="white"/>
<path d="M117.246 62.5383C117.448 62.5215 117.612 62.3614 117.637 62.1564C117.639 61.932 117.46 61.7458 117.24 61.7422C117.036 61.7408 116.865 61.9073 116.858 62.1152C116.857 62.1197 116.857 62.1245 116.857 62.1291C116.857 62.3484 117.031 62.5308 117.246 62.5383Z" fill="white"/>
<path d="M110.088 70.7325C110.303 70.7306 110.479 70.5498 110.479 70.331C110.479 70.1157 110.309 69.9369 110.098 69.9297C110.096 69.9297 110.095 69.9297 110.093 69.9297C109.877 69.9297 109.699 70.1109 109.699 70.331C109.699 70.5494 109.874 70.7298 110.088 70.7325Z" fill="white"/>
<path d="M109.047 72.6696C109.267 72.6641 109.447 72.4841 109.457 72.2604C109.45 72.0468 109.275 71.875 109.065 71.875C108.851 71.875 108.674 72.0552 108.674 72.2741C108.674 72.2746 108.674 72.2751 108.674 72.2756C108.682 72.4832 108.844 72.6533 109.047 72.6696Z" fill="white"/>
<path d="M108.184 74.6735C108.387 74.6677 108.553 74.5 108.561 74.2928C108.564 74.0684 108.386 73.8808 108.166 73.875C107.965 73.899 107.805 74.0603 107.779 74.2648C107.781 74.4896 107.963 74.6735 108.184 74.6735Z" fill="white"/>
<path d="M106.839 78.8861C106.85 78.887 106.861 78.8875 106.872 78.8875C107.081 78.8875 107.256 78.7181 107.267 78.5052C107.267 78.5014 107.267 78.4978 107.267 78.4939C107.267 78.2724 107.09 78.0893 106.872 78.0859C106.669 78.1003 106.504 78.2643 106.484 78.4711C106.486 78.6787 106.637 78.8563 106.839 78.8861Z" fill="white"/>
<path d="M161.922 80.5186C161.936 80.741 162.115 80.9186 162.333 80.9266C162.553 80.9098 162.72 80.713 162.706 80.4893C162.686 80.2824 162.509 80.1247 162.306 80.1331C162.103 80.1492 161.94 80.3129 161.922 80.5186Z" fill="white"/>
<path d="M161.522 78.3567C161.522 78.5789 161.702 78.7616 161.92 78.7616C161.925 78.7616 161.931 78.7616 161.936 78.7613C162.141 78.7316 162.294 78.5504 162.293 78.3396C162.279 78.1287 162.102 77.9641 161.895 77.9689C161.892 77.9689 161.89 77.9689 161.887 77.9689C161.687 77.9689 161.521 78.1371 161.521 78.3418C161.521 78.3466 161.521 78.3516 161.522 78.3567Z" fill="white"/>
<path d="M158.72 99.336C158.512 99.3329 158.335 99.4949 158.315 99.7053C158.315 99.7154 158.314 99.7255 158.314 99.7358C158.314 99.9542 158.491 100.134 158.705 100.134C158.917 100.134 159.093 99.9576 159.096 99.7413C159.086 99.5311 158.925 99.3578 158.72 99.336Z" fill="white"/>
<path d="M122.806 59.1249C123.008 59.1127 123.167 58.9404 123.167 58.7347C123.167 58.5201 122.994 58.3438 122.783 58.3438C122.583 58.3438 122.414 58.5038 122.4 58.7076C122.4 58.7085 122.4 58.7093 122.4 58.7102C122.4 58.9373 122.583 59.1242 122.806 59.1249Z" fill="white"/>
<path d="M158.678 70.5975C158.881 70.5812 159.04 70.4057 159.04 70.1977C159.04 69.9824 158.87 69.8034 158.659 69.7969C158.447 69.8022 158.275 69.9812 158.275 70.1972C158.275 70.4168 158.453 70.5975 158.668 70.5975C158.672 70.5975 158.675 70.5975 158.678 70.5975Z" fill="white"/>
<path d="M111.273 68.8507C111.481 68.8451 111.651 68.674 111.659 68.4623C111.65 68.2403 111.469 68.0625 111.251 68.0625C111.246 68.0625 111.24 68.0625 111.235 68.0627C111.028 68.0822 110.87 68.2653 110.877 68.4772C110.89 68.6884 111.066 68.8543 111.273 68.8507Z" fill="white"/>
<path d="M114.007 65.4647C114.212 65.4673 114.387 65.3087 114.408 65.1013C114.419 64.8772 114.25 64.6821 114.031 64.6641C114.029 64.6641 114.028 64.6641 114.026 64.6641C113.81 64.6641 113.633 64.8448 113.633 65.0646C113.633 65.2773 113.799 65.4546 114.007 65.4647Z" fill="white"/>
<path d="M112.645 102.953C112.644 102.953 112.644 102.953 112.643 102.953C112.426 102.953 112.246 103.136 112.246 103.358C112.246 103.362 112.246 103.366 112.246 103.371C112.256 103.581 112.426 103.749 112.633 103.751C112.838 103.738 113.004 103.568 113.015 103.359C113.009 103.149 112.849 102.975 112.645 102.953Z" fill="white"/>
<path d="M151.459 62.455C151.466 62.4552 151.472 62.4554 151.478 62.4554C151.694 62.4554 151.87 62.275 151.87 62.0558C151.87 61.837 151.694 61.6567 151.479 61.6562C151.268 61.6622 151.098 61.841 151.098 62.0561C151.098 62.2637 151.256 62.4384 151.459 62.455Z" fill="white"/>
<path d="M117.319 107.54C117.312 107.539 117.306 107.539 117.3 107.539C117.082 107.539 116.903 107.721 116.902 107.943C116.92 108.152 117.086 108.32 117.292 108.335C117.499 108.326 117.667 108.157 117.679 107.946C117.688 107.735 117.526 107.552 117.319 107.54Z" fill="white"/>
<path d="M147.876 60.0629C148.081 60.0442 148.24 59.8664 148.239 59.6564C148.227 59.4468 148.055 59.2812 147.848 59.2812C147.639 59.2812 147.464 59.4531 147.457 59.6667C147.461 59.8856 147.639 60.0636 147.854 60.0636C147.861 60.0636 147.869 60.0634 147.876 60.0629Z" fill="white"/>
<path d="M126.962 112.407C126.756 112.396 126.574 112.55 126.547 112.759C126.539 112.987 126.716 113.181 126.939 113.191C127.145 113.18 127.313 113.016 127.333 112.807C127.332 112.596 127.169 112.42 126.962 112.407Z" fill="white"/>
<path d="M106.137 85.4427C106.138 85.4427 106.139 85.4427 106.139 85.4427C106.355 85.4427 106.533 85.2615 106.533 85.0412C106.533 84.8315 106.372 84.6551 106.167 84.6407C105.963 84.6383 105.788 84.7945 105.764 85.0006C105.752 85.2248 105.918 85.4214 106.137 85.4427Z" fill="white"/>
<path d="M141.854 57.5928C142.06 57.5751 142.222 57.4013 142.229 57.1908C142.209 56.9818 142.041 56.8172 141.835 56.8047C141.622 56.8068 141.447 56.9864 141.447 57.2036C141.447 57.2139 141.448 57.224 141.449 57.2343C141.465 57.4452 141.647 57.6063 141.854 57.5928Z" fill="white"/>
<path d="M131.134 56.7968C131.341 56.7797 131.501 56.5964 131.493 56.3845C131.485 56.1725 131.31 56.0033 131.102 56.0079C130.896 56.0177 130.727 56.1841 130.711 56.3936C130.722 56.6209 130.911 56.8009 131.134 56.7968Z" fill="white"/>
<path d="M133.272 56.628C133.474 56.6091 133.636 56.4468 133.659 56.2416C133.66 56.0165 133.479 55.83 133.258 55.8281C133.054 55.8305 132.886 56 132.881 56.208C132.881 56.214 132.881 56.2203 132.881 56.2263C132.881 56.4456 133.057 56.6264 133.272 56.628Z" fill="white"/>
<path d="M161.345 76.6439C161.549 76.6285 161.709 76.4529 161.709 76.2443C161.709 76.0307 161.542 75.8529 161.333 75.8438C161.117 75.8517 160.943 76.0348 160.943 76.2551C160.943 76.2621 160.944 76.2688 160.944 76.2757C160.962 76.4855 161.138 76.6473 161.345 76.6439Z" fill="white"/>
<path d="M161.345 93.2812C161.141 93.2877 160.974 93.4569 160.967 93.6652C160.96 93.8726 161.111 94.0538 161.313 94.0809C161.533 94.096 161.727 93.9244 161.743 93.6998C161.743 93.4752 161.566 93.2884 161.345 93.2812Z" fill="white"/>
<path d="M160.561 74.5707C160.567 74.571 160.573 74.5712 160.58 74.5712C160.796 74.5712 160.973 74.3907 160.973 74.1711C160.973 74.1702 160.973 74.1658 160.973 74.1646C160.973 73.9501 160.799 73.7734 160.589 73.7734C160.383 73.7734 160.212 73.9419 160.205 74.1514C160.202 74.3619 160.356 74.5434 160.561 74.5707Z" fill="white"/>
<path d="M153.181 63.853C153.385 63.8251 153.538 63.6437 153.535 63.4339C153.53 63.2222 153.356 63.0518 153.148 63.0547C152.942 63.0619 152.776 63.2342 152.771 63.4442C152.771 63.4464 152.771 63.4483 152.771 63.4505C152.771 63.6715 152.95 63.8532 153.167 63.8532C153.172 63.8532 153.176 63.8532 153.181 63.853Z" fill="white"/>
<path d="M157.471 68.76C157.678 68.7655 157.854 68.5978 157.861 68.3868C157.862 68.3772 157.862 68.3676 157.862 68.358C157.862 68.1444 157.69 67.9688 157.48 67.9688C157.282 67.9688 157.114 68.1269 157.099 68.329C157.097 68.3467 157.096 68.3645 157.096 68.3823C157.096 68.5896 157.263 68.76 157.466 68.76C157.468 68.76 157.47 68.76 157.471 68.76Z" fill="white"/>
<path d="M112.565 67.1174C112.566 67.1174 112.566 67.1174 112.567 67.1174C112.777 67.1174 112.95 66.941 112.95 66.7267C112.95 66.5123 112.777 66.3359 112.567 66.3359C112.358 66.3359 112.186 66.5097 112.184 66.7226C112.193 66.9328 112.359 67.1042 112.565 67.1174Z" fill="white"/>
<path d="M154.706 65.3749C154.914 65.3814 155.09 65.2129 155.097 65.001C155.104 64.7903 154.951 64.6064 154.746 64.5786C154.74 64.5784 154.734 64.5781 154.727 64.5781C154.511 64.5781 154.332 64.76 154.332 64.9811C154.332 64.9818 154.332 64.9825 154.332 64.9832C154.332 64.9859 154.332 64.9883 154.332 64.9909C154.332 65.2004 154.5 65.3732 154.706 65.3749Z" fill="white"/>
<path d="M156.166 67.0066C156.374 67.0068 156.544 66.8338 156.545 66.6226C156.545 66.6161 156.546 66.6098 156.546 66.6034C156.546 66.3982 156.38 66.229 156.179 66.228C156.168 66.227 156.157 66.2266 156.147 66.2266C155.937 66.2266 155.764 66.4027 155.764 66.6168C155.764 66.8309 155.937 67.007 156.147 67.007C156.153 67.007 156.16 67.0068 156.166 67.0066Z" fill="white"/>
<path d="M159.739 97.3906C159.531 97.3887 159.356 97.5534 159.342 97.7641C159.342 97.9868 159.522 98.1699 159.74 98.1699C159.744 98.1699 159.749 98.1699 159.753 98.1697C159.961 98.163 160.127 97.9849 160.123 97.7732C160.116 97.5627 159.945 97.393 159.739 97.3906Z" fill="white"/>
<path d="M143.92 58.2402C144.123 58.2311 144.286 58.0583 144.286 57.8509C144.286 57.6371 144.113 57.4609 143.903 57.4609C143.897 57.4609 143.892 57.4612 143.886 57.4614C143.681 57.4703 143.512 57.6373 143.498 57.8466C143.5 58.0638 143.676 58.2414 143.889 58.2414C143.899 58.2414 143.909 58.2409 143.92 58.2402Z" fill="white"/>
<path d="M126.848 57.6438C127.069 57.6438 127.251 57.4588 127.251 57.2336V57.2332C127.246 57.0256 127.08 56.8561 126.876 56.8518C126.871 56.8516 126.866 56.8516 126.861 56.8516C126.645 56.8516 126.468 57.032 126.467 57.2519C126.489 57.4564 126.648 57.6196 126.848 57.6438Z" fill="white"/>
<path d="M161.925 91.1797C161.719 91.1854 161.553 91.3599 161.553 91.5699C161.553 91.7842 161.726 91.9604 161.936 91.9604C162.146 91.9604 162.319 91.7842 162.319 91.5699C162.319 91.568 162.319 91.5658 162.319 91.5637C162.302 91.3534 162.132 91.1874 161.925 91.1797Z" fill="white"/>
<path d="M141.883 112.391C141.677 112.406 141.519 112.587 141.528 112.797C141.528 113.003 141.694 113.172 141.895 113.172C141.9 113.172 141.905 113.172 141.909 113.172C142.116 113.172 142.287 113.002 142.292 112.792C142.292 112.79 142.292 112.788 142.292 112.786C142.292 112.569 142.117 112.391 141.904 112.391C141.897 112.391 141.89 112.391 141.883 112.391Z" fill="white"/>
<path d="M114.024 104.596C113.826 104.611 113.67 104.781 113.67 104.984C113.67 105.198 113.842 105.374 114.052 105.374C114.07 105.374 114.088 105.372 114.107 105.37C114.3 105.349 114.449 105.181 114.449 104.983C114.449 104.769 114.277 104.594 114.067 104.594C114.053 104.594 114.039 104.594 114.024 104.596Z" fill="white"/>
<path d="M131.175 113.219C130.969 113.231 130.803 113.401 130.791 113.611C130.791 113.614 130.791 113.615 130.791 113.618C130.791 113.836 130.968 114.016 131.182 114.016C131.397 114.016 131.574 113.836 131.574 113.618C131.574 113.399 131.397 113.219 131.182 113.219C131.18 113.219 131.178 113.219 131.175 113.219Z" fill="white"/>
<path d="M153.22 106.11C153.012 106.099 152.831 106.26 152.812 106.471C152.812 106.474 152.812 106.477 152.812 106.479C152.812 106.703 152.993 106.887 153.213 106.887C153.214 106.887 153.215 106.887 153.216 106.887C153.424 106.884 153.593 106.709 153.593 106.497C153.593 106.494 153.593 106.49 153.593 106.486C153.593 106.28 153.427 106.11 153.225 106.11C153.223 106.11 153.222 106.11 153.22 106.11Z" fill="white"/>
<path d="M133.357 113.367C133.141 113.368 132.963 113.55 132.963 113.771C132.963 113.778 132.963 113.786 132.963 113.793C132.976 113.998 133.145 114.16 133.347 114.16C133.557 114.16 133.73 113.984 133.73 113.769V113.769C133.725 113.559 133.563 113.385 133.357 113.367Z" fill="white"/>
<path d="M151.515 107.524C151.308 107.535 151.143 107.711 151.143 107.922C151.156 108.132 151.325 108.299 151.531 108.306C151.738 108.304 151.911 108.137 151.923 107.927C151.923 107.922 151.923 107.917 151.923 107.913C151.923 107.699 151.751 107.523 151.541 107.523C151.533 107.523 151.524 107.524 151.515 107.524Z" fill="white"/>
<path d="M119.104 108.797C119.097 108.797 119.09 108.797 119.084 108.797C118.869 108.797 118.692 108.977 118.692 109.196C118.692 109.198 118.692 109.2 118.692 109.202C118.692 109.208 118.691 109.213 118.691 109.219C118.691 109.425 118.857 109.594 119.059 109.594C119.06 109.594 119.06 109.594 119.061 109.594C119.066 109.594 119.07 109.594 119.075 109.594C119.278 109.594 119.446 109.427 119.452 109.221C119.46 109.01 119.309 108.826 119.104 108.797Z" fill="white"/>
<path d="M115.589 63.9289C115.795 63.9109 115.955 63.733 115.955 63.5223C115.953 63.308 115.78 63.1328 115.569 63.1328C115.557 63.1328 115.544 63.1335 115.531 63.1347C115.339 63.1518 115.189 63.3176 115.189 63.5144C115.189 63.5283 115.19 63.542 115.192 63.5557C115.208 63.7657 115.382 63.9296 115.589 63.9289Z" fill="white"/>
<path d="M106.195 83.2333C106.208 83.2345 106.221 83.2352 106.233 83.2352C106.441 83.2352 106.612 83.0627 106.615 82.8512C106.622 82.6422 106.461 82.4636 106.256 82.4538C106.036 82.4411 105.845 82.6141 105.832 82.8378C105.834 83.0447 105.993 83.2179 106.195 83.2333Z" fill="white"/>
<path d="M149.731 61.1799C149.932 61.1736 150.095 61.003 150.095 60.7976C150.095 60.7911 150.095 60.7848 150.094 60.7786C150.089 60.5667 149.915 60.3958 149.707 60.3987C149.703 60.3987 149.7 60.3984 149.697 60.3984C149.486 60.3984 149.312 60.5753 149.312 60.7899C149.312 61.0047 149.486 61.1813 149.697 61.1813C149.708 61.1813 149.719 61.1808 149.731 61.1799Z" fill="white"/>
<path d="M162.333 89C162.127 89.0096 161.96 89.1805 161.952 89.391C161.942 89.6024 162.104 89.7845 162.312 89.7951C162.322 89.7958 162.331 89.7963 162.341 89.7963C162.548 89.7963 162.718 89.623 162.718 89.4123C162.718 89.4054 162.718 89.3982 162.717 89.3912C162.705 89.1814 162.539 89.0125 162.333 89Z" fill="white"/>
<path d="M145.999 110.899C145.99 110.899 145.98 110.898 145.971 110.898C145.763 110.898 145.592 111.073 145.592 111.285C145.592 111.292 145.592 111.298 145.592 111.304C145.601 111.516 145.776 111.685 145.984 111.681C145.986 111.681 145.989 111.681 145.991 111.681C146.202 111.681 146.375 111.505 146.375 111.29C146.375 111.079 146.206 110.903 145.999 110.899Z" fill="white"/>
<path d="M107.276 91.5875C107.269 91.3789 107.099 91.2109 106.894 91.2109C106.686 91.2109 106.514 91.3842 106.512 91.5961C106.514 91.8205 106.695 92.0041 106.916 92.0041C106.919 92.0041 106.921 92.0041 106.924 92.0041C107.131 91.9852 107.288 91.7992 107.276 91.5875Z" fill="white"/>
<path d="M106.62 87.2512C106.615 87.0395 106.444 86.8679 106.236 86.8672C106.017 86.872 105.84 87.0568 105.84 87.2797C105.84 87.2836 105.84 87.2874 105.84 87.2913C105.865 87.501 106.047 87.6573 106.254 87.6455C106.456 87.6443 106.621 87.4753 106.621 87.2701C106.621 87.2639 106.62 87.2574 106.62 87.2512Z" fill="white"/>
<path d="M107.495 93.3528C107.485 93.352 107.476 93.3516 107.466 93.3516C107.259 93.3516 107.088 93.5258 107.088 93.7372C107.088 93.744 107.088 93.7504 107.088 93.7572C107.09 93.9645 107.258 94.134 107.462 94.134C107.466 94.134 107.471 94.134 107.475 94.1337C107.684 94.1373 107.858 93.9667 107.863 93.7545C107.868 93.5424 107.703 93.3626 107.495 93.3528Z" fill="white"/>
<path d="M111.292 101.203C111.086 101.22 110.927 101.401 110.934 101.611C110.936 101.819 111.105 101.989 111.309 101.989C111.312 101.989 111.314 101.989 111.317 101.989C111.321 101.989 111.325 101.989 111.329 101.989C111.531 101.989 111.697 101.82 111.697 101.614C111.697 101.613 111.697 101.612 111.697 101.61C111.697 101.607 111.697 101.604 111.697 101.601C111.697 101.382 111.521 101.203 111.307 101.203C111.302 101.203 111.297 101.203 111.292 101.203Z" fill="white"/>
<path d="M108.222 95.4077C108.211 95.4067 108.2 95.4062 108.189 95.4062C107.993 95.4062 107.831 95.5668 107.825 95.7658C107.824 95.7763 107.824 95.7866 107.824 95.7972C107.824 96.011 107.997 96.187 108.207 96.187C108.417 96.187 108.589 96.011 108.589 95.7972C108.589 95.5891 108.426 95.4158 108.222 95.4077Z" fill="white"/>
<path d="M159.726 72.529C159.932 72.5096 160.092 72.333 160.094 72.1225C160.08 71.9113 159.903 71.7466 159.695 71.7502C159.691 71.75 159.686 71.75 159.682 71.75C159.479 71.75 159.312 71.9199 159.312 72.1263C159.312 72.1275 159.312 72.1285 159.312 72.1297C159.312 72.1326 159.312 72.1357 159.312 72.1386C159.312 72.3534 159.486 72.5302 159.697 72.5302C159.707 72.5302 159.716 72.5298 159.726 72.529Z" fill="white"/>
<path d="M107.437 76.7388C107.445 76.7393 107.453 76.7395 107.461 76.7395C107.664 76.7395 107.832 76.5686 107.832 76.3608C107.832 76.3502 107.832 76.3394 107.831 76.3289C107.821 76.1189 107.645 75.9535 107.439 75.9612C107.234 75.9614 107.066 76.1328 107.066 76.3411C107.066 76.3437 107.066 76.3461 107.066 76.3488C107.064 76.559 107.231 76.7345 107.437 76.7388Z" fill="white"/>
<path d="M110.116 99.3679C109.915 99.3679 109.75 99.5361 109.75 99.7404C109.75 99.7459 109.75 99.7514 109.75 99.7569C109.751 99.9691 109.922 100.143 110.13 100.143C110.339 100.143 110.51 99.9686 110.51 99.7562C110.51 99.7473 110.51 99.7382 110.509 99.7291C110.501 99.528 110.336 99.3672 110.139 99.3672C110.131 99.3672 110.123 99.3674 110.116 99.3679Z" fill="white"/>
<path d="M124.887 111.742C124.884 111.742 124.883 111.742 124.88 111.742C124.672 111.742 124.5 111.917 124.5 112.13C124.5 112.141 124.5 112.153 124.501 112.164C124.51 112.363 124.673 112.523 124.869 112.523C124.879 112.523 124.889 112.522 124.898 112.521C125.104 112.514 125.269 112.337 125.265 112.127C125.261 111.917 125.092 111.746 124.887 111.742Z" fill="white"/>
<path d="M137.609 56.7658C137.814 56.7474 137.971 56.5671 137.965 56.3578C137.955 56.1483 137.782 55.9818 137.576 55.9844C137.575 55.9844 137.574 55.9844 137.573 55.9844C137.368 55.9844 137.199 56.156 137.199 56.3648C137.199 56.3655 137.199 56.3662 137.199 56.367C137.199 56.3691 137.199 56.3713 137.199 56.3732C137.199 56.589 137.374 56.7666 137.585 56.7666C137.593 56.7666 137.601 56.7663 137.609 56.7658Z" fill="white"/>
<path d="M137.682 113.219C137.475 113.212 137.299 113.375 137.286 113.585C137.285 113.594 137.285 113.602 137.285 113.61C137.285 113.825 137.458 114.002 137.67 114.002C137.88 114.002 138.054 113.825 138.054 113.61C138.054 113.4 137.888 113.226 137.682 113.219Z" fill="white"/>
</g>
<path d="M91.3265 161.16H94.8565V162.12H92.7865V166H91.3265V161.16ZM95.5518 164.62H97.1118V166H95.5518V164.62ZM103.485 166.1C103.192 166.1 102.928 166.087 102.695 166.06C102.468 166.033 102.218 165.983 101.945 165.91C101.638 165.83 101.385 165.727 101.185 165.6C100.985 165.467 100.818 165.283 100.685 165.05C100.545 164.817 100.475 164.54 100.475 164.22V161.37C100.475 160.063 101.478 159.41 103.485 159.41C103.998 159.41 104.685 159.483 105.545 159.63V160.8C104.772 160.613 104.092 160.52 103.505 160.52C103.258 160.52 103.065 160.527 102.925 160.54C102.792 160.553 102.652 160.587 102.505 160.64C102.192 160.747 102.035 160.983 102.035 161.35V164.11C102.035 164.697 102.572 164.99 103.645 164.99C104.105 164.99 104.752 164.893 105.585 164.7V165.88C104.872 166.027 104.172 166.1 103.485 166.1ZM107.892 166.1C107.439 166.1 107.099 166.06 106.872 165.98C106.652 165.893 106.495 165.743 106.402 165.53C106.315 165.31 106.272 164.983 106.272 164.55C106.272 164.163 106.319 163.86 106.412 163.64C106.512 163.42 106.669 163.263 106.882 163.17C107.102 163.07 107.402 163.02 107.782 163.02H109.422V162.69C109.422 162.483 109.392 162.33 109.332 162.23C109.279 162.13 109.175 162.06 109.022 162.02C108.875 161.98 108.652 161.96 108.352 161.96C107.939 161.96 107.372 162 106.652 162.08V161.16C107.179 161.093 107.795 161.06 108.502 161.06C109.122 161.06 109.599 161.107 109.932 161.2C110.272 161.293 110.515 161.453 110.662 161.68C110.809 161.907 110.882 162.237 110.882 162.67V166H109.452V165.56C109.339 165.753 109.185 165.89 108.992 165.97C108.799 166.057 108.432 166.1 107.892 166.1ZM108.462 165.19C108.755 165.19 108.965 165.18 109.092 165.16C109.185 165.147 109.249 165.127 109.282 165.1C109.322 165.073 109.355 165.03 109.382 164.97C109.409 164.923 109.422 164.853 109.422 164.76V163.82H108.422C108.195 163.82 108.035 163.837 107.942 163.87C107.849 163.897 107.785 163.957 107.752 164.05C107.719 164.137 107.702 164.293 107.702 164.52C107.702 164.74 107.719 164.893 107.752 164.98C107.785 165.067 107.849 165.123 107.942 165.15C108.042 165.177 108.215 165.19 108.462 165.19ZM112.166 161.16H113.626V163.02H115.456V161.16H116.916V166H115.456V163.98H113.626V166H112.166V161.16ZM118.192 161.16H119.652V163.12C119.758 163.12 119.845 163.107 119.912 163.08C119.978 163.047 120.045 162.99 120.112 162.91L121.512 161.16H123.032L121.092 163.4C121.365 163.527 121.632 163.777 121.892 164.15L123.182 166H121.502L120.432 164.42C120.312 164.247 120.198 164.137 120.092 164.09C119.985 164.043 119.838 164.02 119.652 164.02V166H118.192V161.16ZM124.987 162.12H123.387V161.16H128.047V162.12H126.447V166H124.987V162.12ZM128.645 162.58H131.725V163.7H128.645V162.58ZM132.822 159.51H138.542V166H136.982V160.61H134.382V166H132.822V159.51ZM142.311 166.1C140.598 166.1 139.741 165.577 139.741 164.53V162.79C139.741 162.183 139.935 161.743 140.321 161.47C140.715 161.197 141.318 161.06 142.131 161.06C142.898 161.06 143.458 161.193 143.811 161.46C144.171 161.72 144.351 162.163 144.351 162.79V163.97H141.211V164.41C141.211 164.69 141.311 164.89 141.511 165.01C141.711 165.13 142.071 165.19 142.591 165.19C143.071 165.19 143.611 165.12 144.211 164.98V165.91C143.618 166.037 142.985 166.1 142.311 166.1ZM142.961 163.14V162.44C142.961 162.28 142.895 162.16 142.761 162.08C142.635 162 142.418 161.96 142.111 161.96C141.758 161.96 141.521 162 141.401 162.08C141.275 162.167 141.211 162.287 141.211 162.44V163.14H142.961ZM146.627 162.12H145.027V161.16H149.687V162.12H148.087V166H146.627V162.12ZM152.956 166.1C151.242 166.1 150.386 165.577 150.386 164.53V162.79C150.386 162.183 150.579 161.743 150.966 161.47C151.359 161.197 151.962 161.06 152.776 161.06C153.542 161.06 154.102 161.193 154.456 161.46C154.816 161.72 154.996 162.163 154.996 162.79V163.97H151.856V164.41C151.856 164.69 151.956 164.89 152.156 165.01C152.356 165.13 152.716 165.19 153.236 165.19C153.716 165.19 154.256 165.12 154.856 164.98V165.91C154.262 166.037 153.629 166.1 152.956 166.1ZM153.606 163.14V162.44C153.606 162.28 153.539 162.16 153.406 162.08C153.279 162 153.062 161.96 152.756 161.96C152.402 161.96 152.166 162 152.046 162.08C151.919 162.167 151.856 162.287 151.856 162.44V163.14H153.606ZM156.112 161.16H157.492V161.64C157.578 161.427 157.748 161.277 158.002 161.19C158.255 161.103 158.632 161.06 159.132 161.06C159.552 161.06 159.888 161.093 160.142 161.16C160.402 161.227 160.598 161.333 160.732 161.48C160.858 161.627 160.945 161.79 160.992 161.97C161.038 162.143 161.062 162.383 161.062 162.69V164.28C161.062 164.76 160.992 165.13 160.852 165.39C160.712 165.65 160.495 165.833 160.202 165.94C159.915 166.047 159.522 166.1 159.022 166.1C158.542 166.1 158.195 166.06 157.982 165.98C157.768 165.9 157.632 165.743 157.572 165.51V168.08H156.112V161.16ZM158.572 165.19C158.858 165.19 159.075 165.17 159.222 165.13C159.368 165.09 159.468 165.02 159.522 164.92C159.575 164.82 159.602 164.67 159.602 164.47V162.68C159.602 162.46 159.578 162.303 159.532 162.21C159.485 162.11 159.392 162.043 159.252 162.01C159.112 161.977 158.882 161.96 158.562 161.96C158.288 161.96 158.078 161.983 157.932 162.03C157.792 162.077 157.695 162.15 157.642 162.25C157.595 162.35 157.572 162.493 157.572 162.68V164.47C157.572 164.67 157.595 164.82 157.642 164.92C157.695 165.02 157.792 165.09 157.932 165.13C158.072 165.17 158.285 165.19 158.572 165.19ZM164.575 166.1C164.002 166.1 163.545 166.06 163.205 165.98C162.872 165.9 162.609 165.72 162.415 165.44C162.229 165.153 162.135 164.723 162.135 164.15V162.12C162.135 161.527 162.229 161.04 162.415 160.66C162.609 160.28 162.865 159.983 163.185 159.77C163.512 159.557 163.915 159.38 164.395 159.24L164.895 159.11C165.169 159.043 165.469 158.967 165.795 158.88C166.122 158.787 166.402 158.693 166.635 158.6V159.84C166.255 160.027 165.609 160.22 164.695 160.42C164.302 160.507 163.989 160.61 163.755 160.73C163.529 160.843 163.359 161 163.245 161.2C163.132 161.4 163.075 161.663 163.075 161.99V162.53H163.085C163.179 162.137 163.372 161.85 163.665 161.67C163.959 161.49 164.419 161.4 165.045 161.4C165.592 161.4 166.005 161.473 166.285 161.62C166.572 161.767 166.765 161.987 166.865 162.28C166.965 162.573 167.015 162.977 167.015 163.49V164.15C167.015 164.623 166.949 165 166.815 165.28C166.682 165.553 166.439 165.76 166.085 165.9C165.732 166.033 165.229 166.1 164.575 166.1ZM164.595 165.19C164.889 165.19 165.102 165.163 165.235 165.11C165.369 165.057 165.455 164.977 165.495 164.87C165.535 164.763 165.555 164.603 165.555 164.39V163.15C165.555 162.903 165.535 162.727 165.495 162.62C165.455 162.507 165.372 162.427 165.245 162.38C165.119 162.333 164.912 162.31 164.625 162.31C164.325 162.31 164.102 162.34 163.955 162.4C163.815 162.453 163.719 162.543 163.665 162.67C163.619 162.79 163.595 162.967 163.595 163.2V164.39C163.595 164.597 163.619 164.757 163.665 164.87C163.719 164.977 163.815 165.057 163.955 165.11C164.102 165.163 164.315 165.19 164.595 165.19ZM169.523 165.96L167.593 161.16H169.183L170.273 164.58L171.263 161.16H172.773L170.123 168.08H168.643L169.523 165.96ZM173.494 161.16H174.874V161.64C174.961 161.427 175.131 161.277 175.384 161.19C175.638 161.103 176.014 161.06 176.514 161.06C176.934 161.06 177.271 161.093 177.524 161.16C177.784 161.227 177.981 161.333 178.114 161.48C178.241 161.627 178.328 161.79 178.374 161.97C178.421 162.143 178.444 162.383 178.444 162.69V164.28C178.444 164.76 178.374 165.13 178.234 165.39C178.094 165.65 177.878 165.833 177.584 165.94C177.298 166.047 176.904 166.1 176.404 166.1C175.924 166.1 175.578 166.06 175.364 165.98C175.151 165.9 175.014 165.743 174.954 165.51V168.08H173.494V161.16ZM175.954 165.19C176.241 165.19 176.458 165.17 176.604 165.13C176.751 165.09 176.851 165.02 176.904 164.92C176.958 164.82 176.984 164.67 176.984 164.47V162.68C176.984 162.46 176.961 162.303 176.914 162.21C176.868 162.11 176.774 162.043 176.634 162.01C176.494 161.977 176.264 161.96 175.944 161.96C175.671 161.96 175.461 161.983 175.314 162.03C175.174 162.077 175.078 162.15 175.024 162.25C174.978 162.35 174.954 162.493 174.954 162.68V164.47C174.954 164.67 174.978 164.82 175.024 164.92C175.078 165.02 175.174 165.09 175.314 165.13C175.454 165.17 175.668 165.19 175.954 165.19ZM179.588 161.16H183.118V162.12H181.048V166H179.588V161.16Z" fill="url(#paint1_linear_1_734)"/>
<defs>
<filter id="filter0_dd_1_734" x="65.5781" y="15" width="137.658" height="140" filterUnits="userSpaceOnUse" color-interpolation-filters="sRGB">
<feFlood flood-opacity="0" result="BackgroundImageFix"/>
<feColorMatrix in="SourceAlpha" type="matrix" values="0 0 0 0 0 0 0 0 0 0 0 0 0 0 0 0 0 0 127 0" result="hardAlpha"/>
<feOffset/>
<feGaussianBlur stdDeviation="5"/>
<feComposite in2="hardAlpha" operator="out"/>
<feColorMatrix type="matrix" values="0 0 0 0 0.8423 0 0 0 0 0.585 0 0 0 0 1 0 0 0 0.5 0"/>
<feBlend mode="normal" in2="BackgroundImageFix" result="effect1_dropShadow_1_734"/>
<feColorMatrix in="SourceAlpha" type="matrix" values="0 0 0 0 0 0 0 0 0 0 0 0 0 0 0 0 0 0 127 0" result="hardAlpha"/>
<feOffset/>
<feGaussianBlur stdDeviation="5"/>
<feComposite in2="hardAlpha" operator="out"/>
<feColorMatrix type="matrix" values="0 0 0 0 0.8423 0 0 0 0 0.585 0 0 0 0 1 0 0 0 1 0"/>
<feBlend mode="normal" in2="effect1_dropShadow_1_734" result="effect2_dropShadow_1_734"/>
<feBlend mode="normal" in="SourceGraphic" in2="effect2_dropShadow_1_734" result="shape"/>
</filter>
<linearGradient id="paint0_linear_1_734" x1="13.5" y1="185" x2="285.49" y2="30.0463" gradientUnits="userSpaceOnUse">
<stop stop-color="#1F0B32"/>
<stop offset="1" stop-color="#1D1B7A"/>
</linearGradient>
<linearGradient id="paint1_linear_1_734" x1="36.7589" y1="125.655" x2="37.3374" y2="173.212" gradientUnits="userSpaceOnUse">
<stop stop-color="#B195FF"/>
<stop offset="1" stop-color="#D795FF"/>
</linearGradient>
</defs>
</svg>
