<svg width="13" height="23" viewBox="0 0 13 23" fill="none" xmlns="http://www.w3.org/2000/svg">
<path d="M6.25116 15.7368C5.75355 15.7368 5.3339 15.5653 4.99221 15.2224C4.65052 14.8794 4.49999 14.4759 4.54063 14.0118C4.60283 13.1645 4.81017 12.4281 5.16264 11.8026C5.51512 11.1772 6.07493 10.5316 6.84208 9.86579C7.69216 9.13947 8.3403 8.50879 8.78649 7.97374C9.23268 7.43868 9.45536 6.82858 9.45453 6.14342C9.45453 5.31623 9.16965 4.63026 8.59988 4.08553C8.03012 3.54079 7.23685 3.26842 6.22006 3.26842C5.55658 3.26842 4.99138 3.40481 4.52446 3.67758C4.05754 3.95035 3.67935 4.28809 3.38991 4.69079C3.09964 5.0943 2.74219 5.36667 2.31756 5.50789C1.89293 5.64912 1.48323 5.63904 1.08846 5.47763C0.611587 5.27588 0.285238 4.94298 0.109416 4.47895C-0.0664066 4.01491 -0.0303294 3.58114 0.217646 3.17763C0.818925 2.26974 1.62754 1.51316 2.64349 0.907895C3.65945 0.302632 4.85164 0 6.22006 0C8.39711 0 10.0716 0.58993 11.2434 1.76979C12.4153 2.94965 13.0008 4.36718 13 6.02237C13 7.03114 12.7773 7.89384 12.332 8.61047C11.8866 9.3271 11.1866 10.139 10.232 11.0461C9.5271 11.6917 9.02949 12.2162 8.73921 12.6197C8.44894 13.0232 8.25197 13.4873 8.1483 14.0118C8.06537 14.5162 7.84766 14.9298 7.49519 15.2526C7.14272 15.5754 6.72804 15.7368 6.25116 15.7368ZM6.22006 23C5.53585 23 4.94991 22.7627 4.46226 22.2882C3.9746 21.8137 3.73119 21.2439 3.73202 20.5789C3.73202 19.9132 3.97584 19.343 4.4635 18.8685C4.95116 18.3939 5.53668 18.1571 6.22006 18.1579C6.90428 18.1579 7.49021 18.3952 7.97787 18.8697C8.46553 19.3442 8.70894 19.914 8.70811 20.5789C8.70811 21.2447 8.46428 21.8149 7.97663 22.2894C7.48897 22.7639 6.90345 23.0008 6.22006 23Z" fill="#F8EDFF"/>
</svg>
