<svg width="16" height="17" viewBox="0 0 16 17" fill="none" xmlns="http://www.w3.org/2000/svg">
<path d="M13.0667 14.5L8.86667 10.3C8.53333 10.5667 8.15 10.7778 7.71667 10.9333C7.28333 11.0889 6.82222 11.1667 6.33333 11.1667C5.12222 11.1667 4.09733 10.7471 3.25867 9.908C2.42 9.06889 2.00044 8.044 2 6.83333C2 5.62222 2.41956 4.59733 3.25867 3.75867C4.09778 2.92 5.12267 2.50044 6.33333 2.5C7.54444 2.5 8.56933 2.91956 9.408 3.75867C10.2467 4.59778 10.6662 5.62267 10.6667 6.83333C10.6667 7.32222 10.5889 7.78333 10.4333 8.21667C10.2778 8.65 10.0667 9.03333 9.8 9.36667L14 13.5667L13.0667 14.5ZM6.33333 9.83333C7.16667 9.83333 7.87511 9.54156 8.45867 8.958C9.04222 8.37444 9.33378 7.66622 9.33333 6.83333C9.33333 6 9.04156 5.29156 8.458 4.708C7.87444 4.12444 7.16622 3.83289 6.33333 3.83333C5.5 3.83333 4.79156 4.12511 4.208 4.70867C3.62444 5.29222 3.33289 6.00044 3.33333 6.83333C3.33333 7.66667 3.62511 8.37511 4.20867 8.95867C4.79222 9.54222 5.50044 9.83378 6.33333 9.83333Z" fill="white"/>
</svg>
