<svg width="1600" height="2270" viewBox="0 0 1600 2270" fill="none" xmlns="http://www.w3.org/2000/svg">
<path d="M1136.94 1669.68C1469.7 1650.24 1643.85 1256.26 1689.32 1061.7C1850.03 428.117 688.895 530.221 645.463 1055.9C602.032 1581.58 -158.356 751.805 -171.092 1077.27C-183.827 1402.74 244.083 1897.79 523.639 1991.09C803.194 2084.4 720.996 1693.99 1136.94 1669.68Z" stroke="url(#paint0_linear_1_1398)" stroke-opacity="0.5"/>
<path d="M956.111 1077.94C1131.38 1067.56 1223.27 860.005 1247.31 757.523C1332.24 423.785 720.641 478.036 697.532 754.9C674.423 1031.76 274.313 595.08 267.46 766.49C260.607 937.901 485.758 1198.44 632.952 1247.46C780.147 1296.48 737.029 1090.91 956.111 1077.94Z" stroke="url(#paint1_linear_1_1398)" stroke-opacity="0.5"/>
<path d="M1128.52 1641.22C1453.66 1622.4 1623.59 1237.5 1667.91 1047.41C1824.57 428.363 690.034 527.496 647.911 1041.16C605.787 1554.83 -137.717 743.556 -149.966 1061.59C-162.215 1379.63 256.211 1863.62 529.432 1954.95C802.653 2046.28 722.099 1664.74 1128.52 1641.22Z" stroke="url(#paint2_linear_1_1398)" stroke-opacity="0.5"/>
<path d="M1120.03 1612.92C1437.68 1594.39 1603.88 1218.31 1647.27 1032.58C1800.63 427.775 692.217 525.147 650.805 1026.96C609.393 1528.78 -116.548 736.601 -128.676 1047.29C-140.804 1357.99 267.725 1830.6 534.596 1919.69C801.468 2008.78 722.966 1636.09 1120.03 1612.92Z" stroke="url(#paint3_linear_1_1398)" stroke-opacity="0.5"/>
<path d="M1111.11 1584.91C1421.27 1566.89 1583.45 1199.71 1625.77 1018.37C1775.35 427.846 693.1 522.652 652.799 1012.64C612.497 1502.62 -96.5366 728.926 -108.296 1032.3C-120.054 1335.67 278.966 1797.24 539.568 1884.3C800.171 1971.36 723.421 1607.43 1111.11 1584.91Z" stroke="url(#paint4_linear_1_1398)" stroke-opacity="0.5"/>
<path d="M1102.62 1556.62C1405.28 1538.88 1563.74 1180.52 1605.13 1003.55C1751.41 427.261 695.285 520.306 655.695 998.438C616.105 1476.57 -75.3657 721.973 -87.0033 1018C-98.6409 1314.02 290.482 1764.22 544.735 1849.04C798.988 1933.86 724.289 1578.79 1102.62 1556.62Z" stroke="url(#paint5_linear_1_1398)" stroke-opacity="0.5"/>
<path d="M1093.71 1528.6C1388.87 1511.38 1543.31 1161.92 1583.63 989.337C1726.13 427.335 696.172 517.813 657.692 984.112C619.212 1450.41 -55.3516 714.3 -66.6203 1003C-77.8892 1291.71 301.726 1730.87 549.71 1813.65C797.693 1896.44 724.747 1550.13 1093.71 1528.6Z" stroke="url(#paint6_linear_1_1398)" stroke-opacity="0.5"/>
<path d="M1085.21 1500.31C1372.88 1483.37 1523.59 1142.72 1562.99 974.514C1702.19 426.745 698.351 515.463 660.583 969.91C622.814 1424.36 -34.1859 707.343 -45.3333 988.702C-56.4807 1270.06 313.236 1697.84 554.871 1778.39C796.505 1858.94 725.61 1521.48 1085.21 1500.31Z" stroke="url(#paint7_linear_1_1398)" stroke-opacity="0.5"/>
<path d="M1076.3 1472.3C1356.48 1455.87 1503.17 1124.13 1541.5 960.305C1676.92 426.822 699.244 512.973 662.585 955.588C625.927 1398.2 -14.1657 699.673 -24.9443 973.709C-35.723 1247.75 324.486 1664.49 559.852 1743.01C795.217 1821.52 726.073 1492.83 1076.3 1472.3Z" stroke="url(#paint8_linear_1_1398)" stroke-opacity="0.5"/>
<path d="M1069 1444.26C1341.81 1428.47 1484.38 1105.52 1521.57 946.027C1653.02 426.629 701.103 509.813 665.756 940.797C630.409 1371.78 6.591 691.101 -3.68912 957.945C-13.9693 1224.79 337.1 1630.87 566.341 1707.5C795.581 1784.12 727.997 1464 1069 1444.26Z" stroke="url(#paint9_linear_1_1398)" stroke-opacity="0.5"/>
<path d="M1060.14 1416.29C1325.33 1400.9 1463.98 1086.95 1500.16 931.907C1628.03 426.996 702.678 508.015 668.24 926.965C633.802 1345.91 27.5243 684.354 17.4831 943.745C7.44209 1203.14 348.636 1597.81 571.463 1672.26C794.289 1746.71 728.65 1435.54 1060.14 1416.29Z" stroke="url(#paint10_linear_1_1398)" stroke-opacity="0.5"/>
<path d="M1051.59 1387.95C1309.4 1372.95 1444.24 1067.73 1479.43 916.99C1603.79 426.112 704.165 504.969 670.64 912.269C637.114 1319.57 47.7671 676.471 37.9771 928.647C28.1871 1180.82 359.851 1564.49 576.473 1636.84C793.095 1709.2 729.314 1406.69 1051.59 1387.95Z" stroke="url(#paint11_linear_1_1398)" stroke-opacity="0.5"/>
<path d="M1042.73 1359.99C1292.93 1345.39 1423.84 1049.16 1458.02 902.875C1578.81 426.484 705.75 503.176 673.133 898.442C640.517 1293.71 68.7097 669.728 59.1587 914.452C49.6078 1159.18 371.396 1531.44 581.604 1601.62C791.812 1671.79 729.976 1378.24 1042.73 1359.99Z" stroke="url(#paint12_linear_1_1398)" stroke-opacity="0.5"/>
<path d="M1034.18 1331.64C1277.01 1317.44 1404.09 1029.94 1437.29 887.956C1554.58 425.598 707.234 500.128 675.53 883.744C643.826 1267.36 88.9494 661.843 79.6496 899.352C70.3497 1136.86 382.608 1498.11 586.611 1566.2C790.615 1634.28 730.638 1349.38 1034.18 1331.64Z" stroke="url(#paint13_linear_1_1398)" stroke-opacity="0.5"/>
<path d="M1025.26 1303.62C1260.6 1289.94 1383.67 1011.34 1415.78 873.741C1529.3 425.669 708.117 497.633 677.524 869.416C646.93 1241.2 108.961 654.168 100.03 884.354C91.0987 1114.54 393.849 1464.76 591.583 1530.81C789.317 1596.86 731.092 1320.72 1025.26 1303.62Z" stroke="url(#paint14_linear_1_1398)" stroke-opacity="0.5"/>
<path d="M1016.77 1275.33C1244.61 1261.93 1363.95 992.143 1395.15 858.922C1505.36 425.083 710.303 495.287 680.421 855.218C650.539 1215.15 130.132 647.214 121.323 870.057C112.513 1092.9 405.365 1431.73 596.75 1495.55C788.135 1559.36 731.962 1292.08 1016.77 1275.33Z" stroke="url(#paint15_linear_1_1398)" stroke-opacity="0.5"/>
<path d="M1007.85 1247.32C1228.2 1234.44 1343.53 973.545 1373.65 844.709C1480.08 425.157 711.189 492.794 682.417 840.893C653.645 1188.99 150.146 639.542 141.705 855.062C133.264 1070.58 416.609 1398.38 601.725 1460.16C786.84 1521.94 732.418 1263.42 1007.85 1247.32Z" stroke="url(#paint16_linear_1_1398)" stroke-opacity="0.5"/>
<path d="M999.843 1218.57C1212.58 1206.08 1323.98 954.189 1353.09 829.803C1455.95 424.739 713.618 490.21 685.756 826.275C657.893 1162.34 171.934 632.008 163.732 840.075C155.53 1048.14 429 1364.54 607.701 1424.14C786.402 1483.74 733.925 1234.18 999.843 1218.57Z" stroke="url(#paint17_linear_1_1398)" stroke-opacity="0.5"/>
<path d="M990.93 1190.56C1196.17 1178.58 1303.55 935.591 1331.59 815.591C1430.67 424.813 714.504 487.718 687.752 811.951C660.999 1136.18 191.948 624.336 184.114 825.08C176.281 1025.83 440.243 1331.19 612.675 1388.76C785.107 1446.32 734.382 1205.52 990.93 1190.56Z" stroke="url(#paint18_linear_1_1398)" stroke-opacity="0.5"/>
<path d="M982.435 1162.26C1180.18 1150.58 1283.84 916.399 1310.95 800.772C1406.73 424.227 716.689 485.372 690.648 797.753C664.607 1110.13 213.119 617.383 205.407 810.783C197.695 1004.18 451.759 1298.17 617.842 1353.5C783.924 1408.82 735.251 1176.88 982.435 1162.26Z" stroke="url(#paint19_linear_1_1398)" stroke-opacity="0.5"/>
<path d="M973.523 1134.25C1163.78 1123.08 1263.41 897.8 1289.45 786.559C1381.45 424.301 717.575 482.879 692.644 783.428C667.714 1083.98 233.133 609.71 225.79 795.788C218.447 981.865 463.003 1264.82 622.816 1318.11C782.629 1371.41 735.708 1148.22 973.523 1134.25Z" stroke="url(#paint20_linear_1_1398)" stroke-opacity="0.5"/>
<path d="M964.967 1105.9C1147.85 1095.13 1243.66 878.57 1268.71 771.638C1357.21 423.412 719.058 479.829 695.039 768.727C671.021 1057.63 253.37 601.822 246.278 780.685C239.187 959.549 474.213 1231.49 627.821 1282.69C781.43 1333.89 736.368 1119.37 964.967 1105.9Z" stroke="url(#paint21_linear_1_1398)" stroke-opacity="0.5"/>
<defs>
<linearGradient id="paint0_linear_1_1398" x1="-850.591" y1="1442.61" x2="283.616" y2="2563.94" gradientUnits="userSpaceOnUse">
<stop stop-color="white"/>
<stop offset="0.523958" stop-color="#D795FF"/>
<stop offset="1" stop-color="#7BC2FE"/>
</linearGradient>
<linearGradient id="paint1_linear_1_1398" x1="-90.5814" y1="959.175" x2="506.229" y2="1549.3" gradientUnits="userSpaceOnUse">
<stop stop-color="white"/>
<stop offset="0.523958" stop-color="#D795FF"/>
<stop offset="1" stop-color="#7BC2FE"/>
</linearGradient>
<linearGradient id="paint2_linear_1_1398" x1="-813.712" y1="1418.23" x2="295.31" y2="2514.53" gradientUnits="userSpaceOnUse">
<stop stop-color="white"/>
<stop offset="0.523958" stop-color="#D795FF"/>
<stop offset="1" stop-color="#7BC2FE"/>
</linearGradient>
<linearGradient id="paint3_linear_1_1398" x1="-777.291" y1="1395.99" x2="305.533" y2="2466.51" gradientUnits="userSpaceOnUse">
<stop stop-color="white"/>
<stop offset="0.523958" stop-color="#D795FF"/>
<stop offset="1" stop-color="#7BC2FE"/>
</linearGradient>
<linearGradient id="paint4_linear_1_1398" x1="-741.523" y1="1372.62" x2="316.082" y2="2418.15" gradientUnits="userSpaceOnUse">
<stop stop-color="white"/>
<stop offset="0.523958" stop-color="#D795FF"/>
<stop offset="1" stop-color="#7BC2FE"/>
</linearGradient>
<linearGradient id="paint5_linear_1_1398" x1="-705.099" y1="1350.39" x2="326.308" y2="2370.12" gradientUnits="userSpaceOnUse">
<stop stop-color="white"/>
<stop offset="0.523958" stop-color="#D795FF"/>
<stop offset="1" stop-color="#7BC2FE"/>
</linearGradient>
<linearGradient id="paint6_linear_1_1398" x1="-669.328" y1="1327.02" x2="336.86" y2="2321.77" gradientUnits="userSpaceOnUse">
<stop stop-color="white"/>
<stop offset="0.523958" stop-color="#D795FF"/>
<stop offset="1" stop-color="#7BC2FE"/>
</linearGradient>
<linearGradient id="paint7_linear_1_1398" x1="-632.91" y1="1304.79" x2="347.08" y2="2273.74" gradientUnits="userSpaceOnUse">
<stop stop-color="white"/>
<stop offset="0.523958" stop-color="#D795FF"/>
<stop offset="1" stop-color="#7BC2FE"/>
</linearGradient>
<linearGradient id="paint8_linear_1_1398" x1="-597.133" y1="1281.42" x2="357.638" y2="2225.39" gradientUnits="userSpaceOnUse">
<stop stop-color="white"/>
<stop offset="0.523958" stop-color="#D795FF"/>
<stop offset="1" stop-color="#7BC2FE"/>
</linearGradient>
<linearGradient id="paint9_linear_1_1398" x1="-560.598" y1="1257.18" x2="369.898" y2="2177.01" gradientUnits="userSpaceOnUse">
<stop stop-color="white"/>
<stop offset="0.523958" stop-color="#D795FF"/>
<stop offset="1" stop-color="#7BC2FE"/>
</linearGradient>
<linearGradient id="paint10_linear_1_1398" x1="-523.93" y1="1234.71" x2="380.403" y2="2128.71" gradientUnits="userSpaceOnUse">
<stop stop-color="white"/>
<stop offset="0.523958" stop-color="#D795FF"/>
<stop offset="1" stop-color="#7BC2FE"/>
</linearGradient>
<linearGradient id="paint11_linear_1_1398" x1="-488.412" y1="1211.57" x2="390.667" y2="2080.62" gradientUnits="userSpaceOnUse">
<stop stop-color="white"/>
<stop offset="0.523958" stop-color="#D795FF"/>
<stop offset="1" stop-color="#7BC2FE"/>
</linearGradient>
<linearGradient id="paint12_linear_1_1398" x1="-451.735" y1="1189.11" x2="401.181" y2="2032.33" gradientUnits="userSpaceOnUse">
<stop stop-color="white"/>
<stop offset="0.523958" stop-color="#D795FF"/>
<stop offset="1" stop-color="#7BC2FE"/>
</linearGradient>
<linearGradient id="paint13_linear_1_1398" x1="-416.22" y1="1165.97" x2="411.442" y2="1984.24" gradientUnits="userSpaceOnUse">
<stop stop-color="white"/>
<stop offset="0.523958" stop-color="#D795FF"/>
<stop offset="1" stop-color="#7BC2FE"/>
</linearGradient>
<linearGradient id="paint14_linear_1_1398" x1="-380.452" y1="1142.6" x2="421.991" y2="1935.88" gradientUnits="userSpaceOnUse">
<stop stop-color="white"/>
<stop offset="0.523958" stop-color="#D795FF"/>
<stop offset="1" stop-color="#7BC2FE"/>
</linearGradient>
<linearGradient id="paint15_linear_1_1398" x1="-344.028" y1="1120.37" x2="432.217" y2="1887.86" gradientUnits="userSpaceOnUse">
<stop stop-color="white"/>
<stop offset="0.523958" stop-color="#D795FF"/>
<stop offset="1" stop-color="#7BC2FE"/>
</linearGradient>
<linearGradient id="paint16_linear_1_1398" x1="-308.258" y1="1097" x2="442.768" y2="1839.5" gradientUnits="userSpaceOnUse">
<stop stop-color="white"/>
<stop offset="0.523958" stop-color="#D795FF"/>
<stop offset="1" stop-color="#7BC2FE"/>
</linearGradient>
<linearGradient id="paint17_linear_1_1398" x1="-270.735" y1="1073.75" x2="454.128" y2="1790.42" gradientUnits="userSpaceOnUse">
<stop stop-color="white"/>
<stop offset="0.523958" stop-color="#D795FF"/>
<stop offset="1" stop-color="#7BC2FE"/>
</linearGradient>
<linearGradient id="paint18_linear_1_1398" x1="-234.965" y1="1050.38" x2="464.679" y2="1742.06" gradientUnits="userSpaceOnUse">
<stop stop-color="white"/>
<stop offset="0.523958" stop-color="#D795FF"/>
<stop offset="1" stop-color="#7BC2FE"/>
</linearGradient>
<linearGradient id="paint19_linear_1_1398" x1="-198.541" y1="1028.15" x2="474.905" y2="1694.04" gradientUnits="userSpaceOnUse">
<stop stop-color="white"/>
<stop offset="0.523958" stop-color="#D795FF"/>
<stop offset="1" stop-color="#7BC2FE"/>
</linearGradient>
<linearGradient id="paint20_linear_1_1398" x1="-162.771" y1="1004.78" x2="485.457" y2="1645.68" gradientUnits="userSpaceOnUse">
<stop stop-color="white"/>
<stop offset="0.523958" stop-color="#D795FF"/>
<stop offset="1" stop-color="#7BC2FE"/>
</linearGradient>
<linearGradient id="paint21_linear_1_1398" x1="-127.258" y1="981.636" x2="495.715" y2="1597.59" gradientUnits="userSpaceOnUse">
<stop stop-color="white"/>
<stop offset="0.523958" stop-color="#D795FF"/>
<stop offset="1" stop-color="#7BC2FE"/>
</linearGradient>
</defs>
</svg>
