<svg xmlns="http://www.w3.org/2000/svg" width="51" height="58" viewBox="0 0 51 58" fill="none"><script xmlns=""/>
  <g filter="url(#filter0_dd_837_4793)">
    <path d="M30.3147 20.5523C30.5682 20.2537 31.0216 20.2325 31.3019 20.5061L39.2673 28.2845C39.6691 28.6769 39.6691 29.3231 39.2673 29.7155L31.2138 37.5798C30.9745 37.8135 30.5925 37.8135 30.3533 37.5798C30.1058 37.3382 30.1058 36.9402 30.3533 36.6986L37.6102 29.6121H20.6121C20.2741 29.6121 20 29.3381 20 29C20 28.6619 20.2741 28.3879 20.6121 28.3879H37.6102L30.3636 21.4785C30.1045 21.2315 30.0831 20.8252 30.3147 20.5523Z" fill="white"/>
  </g>
  <defs>
    <filter id="filter0_dd_837_4793" x="0" y="0.313873" width="59.5686" height="57.4412" filterUnits="userSpaceOnUse" color-interpolation-filters="sRGB">
      <feFlood flood-opacity="0" result="BackgroundImageFix"/>
      <feColorMatrix in="SourceAlpha" type="matrix" values="0 0 0 0 0 0 0 0 0 0 0 0 0 0 0 0 0 0 127 0" result="hardAlpha"/>
      <feOffset/>
      <feGaussianBlur stdDeviation="10"/>
      <feComposite in2="hardAlpha" operator="out"/>
      <feColorMatrix type="matrix" values="0 0 0 0 0.8423 0 0 0 0 0.585 0 0 0 0 1 0 0 0 1 0"/>
      <feBlend mode="normal" in2="BackgroundImageFix" result="effect1_dropShadow_837_4793"/>
      <feColorMatrix in="SourceAlpha" type="matrix" values="0 0 0 0 0 0 0 0 0 0 0 0 0 0 0 0 0 0 127 0" result="hardAlpha"/>
      <feOffset/>
      <feGaussianBlur stdDeviation="2"/>
      <feComposite in2="hardAlpha" operator="out"/>
      <feColorMatrix type="matrix" values="0 0 0 0 0.8423 0 0 0 0 0.585 0 0 0 0 1 0 0 0 1 0"/>
      <feBlend mode="normal" in2="effect1_dropShadow_837_4793" result="effect2_dropShadow_837_4793"/>
      <feBlend mode="normal" in="SourceGraphic" in2="effect2_dropShadow_837_4793" result="shape"/>
    </filter>
  </defs>
<script xmlns=""/></svg>