<svg width="22" height="23" viewBox="0 0 22 23" fill="none" xmlns="http://www.w3.org/2000/svg">
<path d="M19.9923 23C17.4564 23 14.9846 22.3875 12.5769 21.1626C10.1691 19.9376 8.03624 18.3191 6.17815 16.307C4.32007 14.2949 2.82605 11.9843 1.6961 9.37506C0.566154 6.76583 0.000786325 4.08804 0 1.34167C0 0.958334 0.117949 0.638889 0.353846 0.383333C0.589743 0.127778 0.884616 0 1.23846 0H6.01538C6.2906 0 6.53632 0.0958332 6.75256 0.2875C6.9688 0.479167 7.09658 0.724074 7.1359 1.02222L7.90256 5.49444C7.94188 5.79259 7.93677 6.06433 7.88723 6.30967C7.83769 6.555 7.72485 6.77307 7.54872 6.96389L4.71795 10.0944C5.54359 11.6278 6.57564 13.0653 7.8141 14.4069C9.05256 15.7486 10.4188 16.9093 11.9128 17.8889L14.6846 14.8861C14.8615 14.6944 15.0927 14.5509 15.3782 14.4555C15.6636 14.3601 15.9435 14.3333 16.2179 14.375L20.2872 15.2694C20.5624 15.3333 20.7885 15.4773 20.9654 15.7013C21.1423 15.9254 21.2308 16.186 21.2308 16.4833V21.6583C21.2308 22.0417 21.1128 22.3611 20.8769 22.6167C20.641 22.8722 20.3462 23 19.9923 23Z" fill="#F8EDFF"/>
</svg>
